<svg width="716" height="550" viewBox="0 0 716 550" fill="none" xmlns="http://www.w3.org/2000/svg">
<path style="mix-blend-mode:multiply" d="M492.375 443.469C473.123 448.552 460.73 458.724 439.844 470.809L430.749 474.417C430.061 473.928 430.575 474.287 428.138 472.593V472.558C418.38 464.764 415.898 456.416 409.649 444.79C396.951 421.049 404.875 390.331 414.647 365.244C419.636 360.554 424.799 348.763 422.696 337.964C423.443 334.86 424.016 332.114 424.3 330.648C430.206 315.688 422.666 301.51 430.654 285.005C455.507 233.182 446.676 198.203 451.321 177.083C453.728 165.451 448.321 161.524 435.404 148.961C381.168 95.6629 377.157 94.9852 373.16 79.4766C357.916 20.552 365.366 17.3227 358.529 15.8427C355.065 18.9822 356.565 25.1917 355.528 29.4426C354.921 24.7681 355.244 15.8825 354.243 15.5586C346.314 17.2081 352.155 15.0403 338.326 79.5115C335.181 94.2127 329.296 96.5051 318.731 107.205C259.721 166.334 259.881 163.368 261.057 174.262C262.462 187.723 264.147 219.108 266.304 232.972C273.605 280.296 287.429 281.058 286.612 306.279C286.453 312.504 286.218 325.615 288.969 331.261C289.577 333.938 290.325 336.828 291.037 339.434C290.295 347.657 293.155 359.523 298.538 365.024L301.906 376.098C302.739 386.932 327.158 423.052 284.987 475.493C249.261 455.22 251.085 454.777 241.302 449.689C212.757 434.883 169.411 429.845 153.01 457.503C141.334 477.153 154.824 489.148 172.889 501.078C197.478 517.265 217.162 521.062 240.395 521.401L248.568 522.816L241.342 525.492C239.912 525.457 238.307 526.349 236.987 527.172C222.36 536.576 229.073 551.925 239.483 546.159C240.769 545.446 241.98 544.589 243.515 543.627C249.794 547.733 251.01 547.948 258.47 546.233C299.165 537.188 294.586 550.26 321.925 545.018C335.071 542.62 327.063 543.662 345.372 540.522H345.407L348.178 540.059C364.977 542.964 354.462 541.006 374.849 545.516C424.45 556.569 401.008 537.577 451.047 546.443C457.077 547.514 463.361 550.509 468.643 544.195C480.225 551.431 486.743 544.17 483.524 535.414C481.256 529.23 473.542 527.999 473.208 523.434C509.104 520.519 534.131 509.072 557.005 488.59C573.695 473.53 562.916 424.926 492.375 443.479V443.469ZM403.335 370.501C403.544 370.466 403.753 370.437 403.958 370.397C403.753 370.432 403.544 370.466 403.335 370.501ZM405.159 370.147C405.418 370.088 405.667 370.018 405.921 369.948C405.672 370.018 405.418 370.088 405.159 370.147ZM410.666 368.005C411.697 367.427 412.709 366.764 413.711 365.991C412.704 366.764 411.697 367.427 410.666 368.005ZM295.388 167.614C374.824 74.9217 350.321 72.131 355.489 41.1338C356.256 47.682 356.097 75.4251 356.097 75.7888C355.972 95.1297 397.464 139.478 417.912 169.079C424.435 178.399 422.601 185.744 418.624 196.309C412.46 212.505 413.307 227.889 410.237 239.316C407.999 247.649 401.78 253.26 394.679 267.119C393.049 268.395 389.456 270.862 388.22 271.614C388.185 271.51 388.185 271.4 388.15 271.295C366.716 264.164 381.268 240.812 387.223 221.296C388.085 223.265 390.278 223.265 391.718 221.939C392.785 221.002 392.765 220.808 398.356 208.733C402.931 198.666 395.576 195.96 392.292 196.633C394.728 175.862 393.787 155.385 374.092 147.381C373.698 147.132 373.31 146.918 372.916 146.739C372.726 117.022 335.829 119.534 338.296 147.88C311.948 159.765 320.714 183.492 321.805 196.738C318.556 195.731 313.907 198.302 313.598 202.553C313.304 206.062 322.872 230.162 326.555 220.967C332.101 239.451 346.015 267.189 323.948 271.54C323.913 271.684 323.913 271.789 323.878 271.933C322.174 270.593 320.634 269.147 318.526 266.471C314.843 256.101 302.679 248.665 300.466 229.389C296.111 188.57 283.193 182.311 295.398 167.614H295.388ZM372.746 368.563C372.278 368.528 371.804 368.483 371.336 368.453C371.456 368.463 371.57 368.463 371.685 368.473C371.685 368.496 371.697 368.496 371.72 368.473C372.054 368.498 372.407 368.538 372.741 368.563H372.746ZM367.723 368.269C367.245 368.249 366.771 368.234 366.293 368.219C366.766 368.234 367.245 368.254 367.723 368.269Z" fill="url(#paint0_linear_16833_6355)"/>
<path style="mix-blend-mode:multiply" opacity="0.12" d="M578.974 299.168C562.08 298.904 547.219 301.296 535.05 304.944C522.88 308.562 513.402 313.51 507.391 317.791C505.886 318.867 504.601 319.874 503.529 320.811C507.152 309.817 511.144 298.914 515.425 288.114C515.52 288.099 515.594 288.089 515.694 288.075C517.274 287.79 519.561 287.442 522.501 287.163C528.307 286.495 536.415 285.981 546.562 284.676C556.698 283.335 568.892 281.113 582.582 276.164C596.147 271.21 611.526 263.431 625.435 250.444C606.119 248.162 589.997 247.713 575.496 249.791C561.093 251.795 548.595 256.175 538.703 261.712C530.545 266.222 524.31 271.584 520.209 276.358C521.48 273.309 522.731 270.244 524.041 267.214C528.711 256.474 533.674 245.864 538.912 235.394C540.292 235.823 542.41 236.416 545.211 236.979C550.364 238.001 557.69 238.982 566.381 238.818C575.097 238.633 585.079 237.358 596.122 233.899C601.659 232.14 607.519 229.897 613.888 226.539C620.212 223.269 627.164 218.266 631.704 211.588C623.232 211.085 616.699 209.46 610.101 208.344C603.548 207.228 597.034 206.764 590.949 207.083C578.73 207.676 568.409 211.105 560.411 215.286C552.377 219.462 546.552 224.361 542.744 228.213C542.64 228.318 542.555 228.407 542.455 228.512C546.477 220.703 550.608 212.949 554.949 205.314C557.874 200.256 560.894 195.252 563.999 190.299C565.673 190.732 568.035 191.276 571.06 191.809C577.459 192.93 586.664 194.007 597.956 193.678C609.239 193.334 622.669 191.599 637.321 186.775C651.917 181.976 667.879 173.993 682.805 161.18C662.756 158.629 645.812 158.474 630.872 160.243C615.991 162.008 603.263 165.656 592.888 169.946C581.959 174.421 573.776 179.574 568.439 183.471C576.343 171.307 584.71 159.451 593.65 148.024C595.385 145.886 597.219 143.838 598.998 141.745H599.835C601.325 141.71 603.293 141.635 605.964 141.929C611.097 142.273 618.114 143.325 627.129 144.202C636.11 145.004 647.058 145.527 659.94 143.918C666.344 143.1 673.316 141.745 680.612 139.472C687.833 137.17 695.856 134.03 702.938 128.688C694.302 126.062 687.145 122.997 679.894 120.904C672.708 118.741 665.861 117.316 659.218 116.623C646.017 115.198 633.887 116.743 623.95 120.146C620.785 121.198 617.88 122.479 615.219 123.864C616.898 122.15 618.628 120.485 620.342 118.806C622.021 118.014 624.259 116.962 626.825 115.751C632.726 112.925 641.243 108.699 650.935 102.346C660.648 95.9966 671.597 87.5247 682.555 76.2521C688.042 70.6357 693.509 64.2669 698.886 57.2003C704.333 50.1985 709.337 42.0655 715.018 34.0919C704.672 35.4424 695.263 39.3146 686.921 42.9824C678.529 46.8048 671.118 51.1753 664.505 55.765C651.304 64.9645 641.462 75.1707 634.286 84.6841C627.119 94.2175 622.604 103.023 620.147 109.562C618.946 112.856 618.194 115.427 617.925 117.326C612.951 122.105 608.087 126.999 603.413 132.072C603.468 131.873 603.513 131.703 603.567 131.479C604.071 129.665 604.549 127.049 605.337 123.69C606.712 116.992 608.666 107.528 610.34 95.9767C612.029 84.4001 613.524 70.6905 614.083 54.8282C614.581 38.9209 614.108 20.9754 612.244 0C598.459 16.7544 590.571 35.0836 586.938 51.8779C583.21 68.727 583.698 84.2007 586.085 96.7242C588.488 109.288 592.684 118.876 596.341 125.06C598.948 129.491 601.101 132.231 602.132 133.457C598.39 137.564 594.732 141.75 591.184 146.026C585.124 153.596 579.343 161.38 573.736 169.288C575.8 163.348 577.693 155.395 578.526 145.767C579.507 134.564 578.959 121.502 576.522 107.364C574.155 93.0613 569.71 78.2056 565.045 59.7319C553.583 75.9979 549.821 94.5315 549.312 109.611C548.814 124.951 551.376 137.758 554.371 148.084C557.386 158.415 561.014 166.478 563.635 172.209C565.015 175.164 566.191 177.466 567.019 179.016C561.652 186.98 556.454 195.063 551.55 203.326C550.977 204.307 550.439 205.314 549.871 206.301C550.274 203.879 550.623 201.307 550.817 198.387C551.994 180.9 548.595 154.468 530.325 118.766C509.669 161.619 534.043 208.055 541.713 220.872C534.596 233.999 527.943 247.374 521.739 260.959C521.769 254.745 521.355 246.458 519.646 236.625C517.792 225.881 514.408 213.447 508.662 200.121C505.822 193.453 502.293 186.556 498.287 179.45C494.3 172.279 489.426 165.132 484.936 156.87C481.383 166.129 480.545 175.782 480.391 184.453C480.271 193.234 481.258 201.302 482.748 208.733C485.798 223.568 491.215 235.648 496.916 245.132C504.75 258.124 513.152 266.227 517.672 270.044C512.659 281.506 507.935 293.078 503.559 304.809C503.38 299.551 502.817 293.442 501.486 286.55C499.418 275.73 495.526 263.332 489.222 250.325C482.992 237.153 474.027 223.972 463.318 208.444C460.686 217.922 460.024 227.391 460.313 236.052C460.622 244.743 461.877 252.792 463.711 260.057C467.374 274.639 473.135 286.265 478.906 295.44C484.692 304.605 490.572 311.347 494.963 315.932C496.233 317.258 497.37 318.374 498.366 319.326C497.106 323.014 495.83 326.691 494.649 330.414C494.649 330.414 494.639 330.439 494.639 330.444C494.2 331.894 495.018 333.429 496.468 333.868C497.918 334.306 499.453 333.489 499.891 332.039L499.916 331.954C500.539 329.911 501.242 327.882 501.89 325.839C503.654 325.899 506.325 326.228 509.694 326.587C516.456 327.344 526.124 328.535 538.274 328.994C550.419 329.432 565.02 329.098 581.545 326.348C597.956 323.457 616.784 318.753 635.736 308.108C625.011 305.557 615.269 303.13 605.795 301.625C596.361 300.075 587.421 299.287 578.959 299.163L578.974 299.168Z" fill="url(#paint1_linear_16833_6355)"/>
<path style="mix-blend-mode:multiply" d="M512.318 399.734C502.989 396.23 494.268 394.611 486.783 394.217C479.308 393.808 473.063 394.675 468.877 395.856C467.831 396.155 466.914 396.459 466.136 396.763C470.332 391.381 474.713 386.119 479.233 380.971C479.288 380.981 479.333 380.991 479.392 381.001C480.329 381.155 481.665 381.414 483.354 381.848C486.713 382.63 491.313 383.956 497.203 385.247C503.099 386.512 510.31 387.704 518.891 387.674C527.408 387.619 537.49 386.353 547.79 381.903C537.52 376.8 528.659 373.346 520.192 371.622C511.8 369.873 503.986 369.823 497.398 370.934C491.971 371.816 487.446 373.555 484.221 375.394C485.532 373.954 486.838 372.499 488.163 371.079C492.888 366.045 497.751 361.142 502.74 356.367C503.423 356.881 504.479 357.628 505.924 358.495C508.581 360.085 512.458 362.088 517.312 363.718C522.185 365.348 527.981 366.623 534.799 366.892C538.222 367.017 541.92 366.932 546.126 366.334C550.287 365.776 555.141 364.376 558.983 361.575C554.379 359.612 551.075 357.414 547.636 355.485C544.222 353.567 540.694 352.012 537.25 350.98C530.348 348.882 523.935 348.738 518.667 349.47C513.38 350.193 509.174 351.758 506.293 353.138C506.213 353.173 506.149 353.208 506.074 353.248C509.856 349.714 513.694 346.226 517.621 342.847C520.252 340.62 522.918 338.442 525.624 336.309C526.466 336.882 527.672 337.654 529.247 338.551C532.576 340.445 537.475 342.872 543.809 344.93C550.143 346.984 557.942 348.683 567.032 348.917C576.087 349.151 586.537 347.891 597.371 343.739C586.746 338.342 577.372 334.889 568.726 332.905C560.115 330.927 552.325 330.428 545.712 330.747C538.755 331.061 533.189 332.297 529.451 333.404C536.254 328.221 543.256 323.297 550.487 318.732C551.872 317.89 553.297 317.118 554.703 316.305C554.842 316.355 554.997 316.41 555.166 316.47C555.998 316.749 557.11 317.093 558.535 317.79C561.316 319.001 565.003 320.975 569.832 323.252C574.656 325.48 580.632 327.947 588.107 329.611C591.824 330.428 595.966 331.061 600.466 331.246C604.931 331.4 610.009 331.251 615.003 329.691C610.727 326.516 607.368 323.392 603.755 320.795C600.192 318.169 596.673 316.016 593.125 314.312C586.079 310.898 579.037 309.348 572.847 309.264C570.879 309.219 569.015 309.353 567.261 309.593C568.532 308.975 569.822 308.392 571.108 307.799C572.2 307.694 573.65 307.554 575.314 307.39C579.151 306.991 584.718 306.338 591.361 304.734C598.014 303.139 605.778 300.607 614.096 296.526C618.257 294.498 622.558 292.046 626.948 289.19C631.363 286.385 635.759 282.861 640.493 279.562C634.483 278.256 628.488 278.541 623.126 278.919C617.709 279.378 612.725 280.33 608.14 281.566C598.986 284.052 591.496 287.76 585.62 291.622C579.75 295.489 575.494 299.481 572.832 302.626C571.512 304.215 570.585 305.496 570.057 306.493C566.344 308.157 562.676 309.907 559.073 311.8C559.143 311.701 559.203 311.616 559.277 311.501C559.915 310.594 560.703 309.239 561.804 307.524C563.897 304.081 566.862 299.212 570.087 293.132C573.326 287.037 576.874 279.727 580.333 271.03C583.766 262.299 587.07 252.238 590.2 240.223C579.221 246.786 571.198 255.397 565.846 263.999C560.429 272.615 557.628 281.301 556.467 288.727C555.306 296.177 555.734 302.337 556.537 306.498C557.105 309.473 557.757 311.426 558.086 312.309C555.191 313.843 552.33 315.443 549.51 317.113C544.641 320.113 539.887 323.287 535.202 326.561C537.53 323.671 540.156 319.634 542.533 314.451C545.304 308.426 547.591 301.066 549.046 292.733C550.571 284.326 551.055 275.192 552.131 264.009C542.538 270.761 536.767 280.305 533.488 288.577C530.164 296.994 529.043 304.614 528.654 310.943C528.275 317.277 528.689 322.475 529.008 326.178C529.187 328.091 529.387 329.606 529.536 330.628C524.971 333.982 520.481 337.44 516.121 341.053C515.607 341.487 515.109 341.935 514.596 342.369C515.298 341.103 516.006 339.748 516.694 338.163C520.82 328.689 524.184 313.34 521.129 289.888C501.15 309.578 505.461 340.201 507.175 348.837C500.617 354.713 494.268 360.818 488.123 367.127C489.374 363.683 490.79 358.999 491.796 353.203C492.903 346.869 493.491 339.294 492.947 330.757C492.693 326.491 492.105 321.962 491.293 317.222C490.501 312.448 489.215 307.514 488.363 302.033C484.55 306.468 482.168 311.661 480.364 316.445C478.555 321.299 477.499 325.973 476.851 330.394C475.6 339.239 476.203 347.018 477.489 353.417C479.258 362.188 482.313 368.353 484.062 371.373C479.004 376.74 474.08 382.227 469.326 387.868C470.268 384.913 471.17 381.409 471.803 377.318C472.804 370.899 473.103 363.245 472.186 354.773C471.344 346.221 468.982 337.126 466.121 326.377C462.777 331.116 460.53 336.244 458.97 341.108C457.415 345.997 456.513 350.711 456.09 355.112C455.227 363.932 456.12 371.532 457.5 377.771C458.89 384.006 460.819 388.919 462.349 392.338C462.792 393.325 463.201 394.172 463.565 394.9C462.135 396.699 460.694 398.483 459.299 400.317C459.299 400.317 459.289 400.327 459.289 400.332C458.756 401.049 458.905 402.061 459.623 402.594C460.341 403.127 461.352 402.978 461.885 402.26L461.915 402.22C462.668 401.209 463.46 400.222 464.228 399.22C465.194 399.604 466.615 400.317 468.409 401.184C472.012 402.948 477.145 405.529 483.798 408.196C490.451 410.852 498.629 413.563 508.346 415.317C518.029 416.971 529.416 418.098 542.055 415.955C536.608 412.407 531.679 409.127 526.72 406.411C521.792 403.676 516.983 401.463 512.313 399.714L512.318 399.734Z" fill="url(#paint2_linear_16833_6355)"/>
<path style="mix-blend-mode:multiply" opacity="0.12" d="M136.044 299.168C152.938 298.904 167.798 301.296 179.968 304.944C192.138 308.562 201.616 313.51 207.631 317.791C209.136 318.867 210.422 319.874 211.494 320.811C207.871 309.817 203.879 298.914 199.598 288.114C199.503 288.099 199.429 288.089 199.329 288.075C197.749 287.79 195.462 287.442 192.521 287.163C186.716 286.495 178.608 285.981 168.461 284.676C158.325 283.335 146.13 281.113 132.441 276.164C118.876 271.21 103.497 263.431 89.5879 250.444C108.904 248.162 125.025 247.713 139.527 249.791C153.929 251.795 166.428 256.175 176.32 261.712C184.478 266.222 190.712 271.584 194.814 276.358C193.543 273.309 192.292 270.244 190.982 267.214C186.312 256.474 181.349 245.864 176.111 235.394C174.73 235.823 172.613 236.416 169.812 236.979C164.659 238.001 157.333 238.982 148.642 238.818C139.926 238.633 129.944 237.358 118.901 233.899C113.364 232.14 107.503 229.897 101.135 226.539C94.8105 223.269 87.8586 218.266 83.3187 211.588C91.7906 211.085 98.3239 209.46 104.922 208.344C111.475 207.228 117.989 206.764 124.074 207.083C136.293 207.676 146.614 211.105 154.612 215.286C162.646 219.462 168.471 224.361 172.279 228.213C172.383 228.318 172.468 228.407 172.568 228.512C168.546 220.703 164.415 212.949 160.074 205.314C157.149 200.256 154.129 195.252 151.024 190.299C149.35 190.732 146.987 191.276 143.963 191.809C137.564 192.93 128.359 194.007 117.067 193.678C105.784 193.334 92.3537 191.599 77.7023 186.775C63.1057 181.976 47.1436 173.993 32.2132 161.18C52.2617 158.629 69.2055 158.474 84.1459 160.243C99.0266 162.008 111.754 165.656 122.13 169.946C133.059 174.421 141.242 179.574 146.579 183.471C138.675 171.307 130.308 159.451 121.367 148.024C119.633 145.886 117.799 143.838 116.02 141.745H115.183C113.693 141.71 111.724 141.635 109.053 141.929C103.92 142.273 96.9036 143.325 87.8885 144.202C78.9083 145.004 67.9596 145.527 55.0773 143.918C48.6736 143.1 41.7017 141.745 34.4059 139.472C27.1849 137.17 19.1664 134.03 12.0799 128.688C20.7163 126.062 27.8725 122.997 35.1235 120.904C42.3097 118.741 49.157 117.316 55.7999 116.623C69.0012 115.198 81.1309 116.743 91.0679 120.146C94.2325 121.198 97.1378 122.479 99.799 123.864C98.1196 122.15 96.3903 120.485 94.676 118.806C92.9966 118.014 90.759 116.962 88.1925 115.751C82.2921 112.925 73.7753 108.699 64.0825 102.346C54.3697 95.9966 43.421 87.5247 32.4623 76.2521C26.9755 70.6357 21.5087 64.2669 16.1315 57.2003C10.6846 50.1985 5.68116 42.0655 0 34.0919C10.3457 35.4424 19.7545 39.3146 28.0968 42.9824C36.489 46.8048 43.8994 51.1753 50.5125 55.765C63.7137 64.9645 73.556 75.1707 80.7322 84.6841C87.8985 94.2175 92.4135 103.023 94.8703 109.562C96.0714 112.856 96.8239 115.427 97.093 117.326C102.066 122.105 106.93 126.999 111.605 132.072C111.55 131.873 111.505 131.703 111.45 131.479C110.947 129.665 110.469 127.049 109.681 123.69C108.306 116.992 106.352 107.528 104.678 95.9767C102.988 84.4001 101.493 70.6905 100.94 54.8282C100.442 38.9209 100.915 20.9754 102.779 0C116.563 16.7544 124.452 35.0836 128.085 51.8779C131.813 68.727 131.324 84.2007 128.937 96.7242C126.535 109.288 122.339 118.876 118.681 125.06C116.075 129.491 113.922 132.231 112.891 133.457C116.633 137.564 120.291 141.75 123.839 146.026C129.899 153.596 135.68 161.38 141.286 169.288C139.223 163.348 137.33 155.395 136.497 145.767C135.516 134.564 136.064 121.502 138.501 107.364C140.868 93.0613 145.313 78.2056 149.978 59.7319C161.44 75.9979 165.202 94.5315 165.71 109.611C166.209 124.951 163.647 137.758 160.652 148.084C157.637 158.415 154.009 166.478 151.388 172.209C150.007 175.164 148.831 177.466 148.004 179.016C153.371 186.98 158.569 195.063 163.473 203.326C164.046 204.307 164.584 205.314 165.152 206.301C164.749 203.879 164.4 201.307 164.205 198.387C163.029 180.9 166.428 154.468 184.697 118.766C205.354 161.619 180.98 208.055 173.31 220.872C180.427 233.999 187.08 247.374 193.284 260.959C193.254 254.745 193.668 246.458 195.377 236.625C197.231 225.881 200.615 213.447 206.361 200.121C209.201 193.453 212.729 186.556 216.736 179.45C220.723 172.279 225.597 165.132 230.087 156.87C233.64 166.129 234.477 175.782 234.632 184.453C234.751 193.234 233.765 201.302 232.275 208.733C229.225 223.568 223.808 235.648 218.107 245.132C210.273 258.124 201.87 266.227 197.355 270.044C202.369 281.506 207.093 293.078 211.469 304.809C211.648 299.551 212.211 293.442 213.542 286.55C215.61 275.73 219.502 263.332 225.806 250.325C232.035 237.153 241.001 223.972 251.71 208.444C254.341 217.922 255.004 227.391 254.715 236.052C254.406 244.743 253.15 252.792 251.316 260.057C247.654 274.639 241.893 286.265 236.122 295.44C230.336 304.605 224.451 311.347 220.065 315.932C218.794 317.258 217.658 318.374 216.656 319.326C217.917 323.014 219.193 326.691 220.374 330.414C220.374 330.414 220.384 330.439 220.384 330.444C220.823 331.894 220.005 333.429 218.555 333.868C217.105 334.306 215.57 333.489 215.131 332.039L215.107 331.954C214.484 329.911 213.781 327.882 213.133 325.839C211.369 325.899 208.698 326.228 205.329 326.587C198.566 327.344 188.898 328.535 176.749 328.994C164.609 329.432 150.003 329.098 133.477 326.348C117.067 323.457 98.2392 318.753 79.287 308.108C90.0115 305.557 99.7541 303.13 109.228 301.625C118.661 300.075 127.602 299.287 136.064 299.163L136.044 299.168Z" fill="url(#paint3_linear_16833_6355)"/>
<path style="mix-blend-mode:multiply" d="M202.69 399.734C212.02 396.23 220.741 394.611 228.226 394.217C235.701 393.808 241.945 394.675 246.131 395.856C247.178 396.155 248.095 396.459 248.872 396.763C244.676 391.381 240.296 386.119 235.776 380.971C235.721 380.981 235.676 380.991 235.616 381.001C234.679 381.155 233.344 381.414 231.654 381.848C228.296 382.63 223.696 383.956 217.805 385.247C211.91 386.512 204.699 387.704 196.117 387.674C187.601 387.619 177.519 386.353 167.218 381.903C177.489 376.8 186.35 373.346 194.817 371.622C203.209 369.873 211.023 369.823 217.611 370.934C223.038 371.816 227.563 373.555 230.787 375.394C229.477 373.954 228.171 372.499 226.845 371.079C222.121 366.045 217.257 361.142 212.269 356.367C211.586 356.881 210.529 357.628 209.084 358.495C206.428 360.085 202.551 362.088 197.697 363.718C192.823 365.348 187.027 366.623 180.21 366.892C176.786 367.017 173.089 366.932 168.883 366.334C164.721 365.776 159.868 364.376 156.025 361.575C160.63 359.612 163.934 357.414 167.373 355.485C170.786 353.567 174.315 352.012 177.758 350.98C184.66 348.882 191.074 348.738 196.342 349.47C201.629 350.193 205.835 351.758 208.715 353.138C208.795 353.173 208.86 353.208 208.935 353.248C205.152 349.714 201.315 346.226 197.388 342.847C194.757 340.62 192.091 338.442 189.385 336.309C188.542 336.882 187.336 337.654 185.762 338.551C182.433 340.445 177.534 342.872 171.2 344.93C164.866 346.984 157.067 348.683 147.977 348.917C138.922 349.151 128.472 347.891 117.638 343.739C128.262 338.342 137.636 334.889 146.283 332.905C154.894 330.927 162.683 330.428 169.296 330.747C176.253 331.061 181.82 332.297 185.557 333.404C178.755 328.221 171.753 323.297 164.522 318.732C163.137 317.89 161.711 317.118 160.306 316.305C160.162 316.355 160.012 316.41 159.843 316.47C159.01 316.749 157.899 317.093 156.474 317.79C153.693 319.001 150.005 320.975 145.176 323.252C140.352 325.48 134.377 327.947 126.902 329.611C123.184 330.428 119.043 331.061 114.543 331.246C110.078 331.4 104.999 331.251 100.006 329.691C104.282 326.516 107.641 323.392 111.254 320.795C114.817 318.169 118.335 316.016 121.884 314.312C128.93 310.898 135.972 309.348 142.161 309.264C144.13 309.219 145.994 309.353 147.748 309.593C146.477 308.975 145.186 308.392 143.9 307.799C142.814 307.694 141.359 307.554 139.694 307.39C135.857 306.991 130.291 306.338 123.648 304.734C116.995 303.139 109.23 300.607 100.913 296.526C96.7519 294.498 92.4511 292.046 88.0607 289.19C83.6453 286.385 79.2499 282.861 74.5156 279.562C80.5257 278.256 86.5208 278.541 91.883 278.919C97.3 279.378 102.284 280.33 106.868 281.566C116.023 284.052 123.513 287.76 129.389 291.622C135.259 295.489 139.515 299.481 142.176 302.626C143.497 304.215 144.424 305.496 144.952 306.493C148.665 308.157 152.332 309.907 155.936 311.8C155.866 311.701 155.806 311.616 155.731 311.501C155.093 310.594 154.306 309.239 153.205 307.524C151.112 304.081 148.146 299.212 144.922 293.132C141.683 287.037 138.135 279.727 134.676 271.03C131.242 262.299 127.938 252.238 124.809 240.223C135.787 246.786 143.811 255.397 149.158 263.999C154.575 272.615 157.376 281.301 158.537 288.727C159.698 296.177 159.269 302.337 158.467 306.498C157.899 309.473 157.246 311.426 156.917 312.309C159.808 313.843 162.673 315.443 165.494 317.113C170.363 320.113 175.117 323.287 179.801 326.561C177.474 323.671 174.848 319.634 172.471 314.451C169.7 308.426 167.408 301.066 165.957 292.733C164.432 284.326 163.949 275.192 162.873 264.009C172.466 270.761 178.237 280.305 181.516 288.577C184.84 296.994 185.961 304.614 186.35 310.943C186.728 317.277 186.315 322.475 185.996 326.178C185.816 328.091 185.617 329.606 185.468 330.628C190.032 333.982 194.523 337.44 198.883 341.053C199.396 341.487 199.895 341.935 200.408 342.369C199.705 341.103 198.998 339.748 198.31 338.163C194.184 328.689 190.82 313.34 193.875 289.888C213.853 309.578 209.543 340.201 207.828 348.837C214.387 354.713 220.736 360.818 226.88 367.127C225.629 363.683 224.214 358.999 223.207 353.203C222.101 346.869 221.513 339.294 222.056 330.757C222.31 326.491 222.898 321.962 223.711 317.222C224.503 312.448 225.789 307.514 226.641 302.033C230.453 306.468 232.835 311.661 234.639 316.445C236.448 321.299 237.505 325.973 238.153 330.394C239.404 339.239 238.801 347.018 237.515 353.417C235.746 362.188 232.691 368.353 230.942 371.373C236 376.74 240.924 382.227 245.678 387.868C244.736 384.913 243.834 381.409 243.201 377.318C242.199 370.899 241.9 363.245 242.817 354.773C243.66 346.221 246.022 337.126 248.882 326.377C252.226 331.116 254.474 336.244 256.034 341.108C257.588 345.997 258.49 350.711 258.914 355.112C259.776 363.932 258.884 371.532 257.504 377.771C256.113 384.006 254.185 388.919 252.655 392.338C252.211 393.325 251.803 394.172 251.439 394.9C252.869 396.699 254.309 398.483 255.705 400.317C255.705 400.317 255.715 400.327 255.715 400.332C256.248 401.049 256.098 402.061 255.381 402.594C254.663 403.127 253.651 402.978 253.118 402.26L253.088 402.22C252.336 401.209 251.543 400.222 250.781 399.22C249.814 399.604 248.394 400.317 246.6 401.184C242.997 402.948 237.864 405.529 231.211 408.196C224.558 410.852 216.38 413.563 206.662 415.317C196.979 416.971 185.592 418.098 172.954 415.955C178.401 412.407 183.33 409.127 188.288 406.411C193.217 403.676 198.026 401.463 202.695 399.714L202.69 399.734Z" fill="url(#paint4_linear_16833_6355)"/>
<defs>
<linearGradient id="paint0_linear_16833_6355" x1="356.266" y1="587.621" x2="356.266" y2="186.043" gradientUnits="userSpaceOnUse">
<stop offset="0.08" stop-color="white"/>
<stop offset="0.5" stop-color="#02B0B3"/>
</linearGradient>
<linearGradient id="paint1_linear_16833_6355" x1="514.383" y1="336.115" x2="640.296" y2="52.2367" gradientUnits="userSpaceOnUse">
<stop offset="0.08" stop-color="white"/>
<stop offset="0.5" stop-color="#02B0B3"/>
</linearGradient>
<linearGradient id="paint2_linear_16833_6355" x1="476.233" y1="425.747" x2="566.663" y2="288.383" gradientUnits="userSpaceOnUse">
<stop offset="0.08" stop-color="white"/>
<stop offset="0.5" stop-color="#02B0B3"/>
</linearGradient>
<linearGradient id="paint3_linear_16833_6355" x1="200.635" y1="336.115" x2="74.7222" y2="52.2367" gradientUnits="userSpaceOnUse">
<stop offset="0.08" stop-color="white"/>
<stop offset="0.5" stop-color="#02B0B3"/>
</linearGradient>
<linearGradient id="paint4_linear_16833_6355" x1="238.776" y1="425.747" x2="148.346" y2="288.383" gradientUnits="userSpaceOnUse">
<stop offset="0.08" stop-color="white"/>
<stop offset="0.5" stop-color="#02B0B3"/>
</linearGradient>
</defs>
</svg>
