<svg width="126" height="126" viewBox="0 0 126 126" fill="none" xmlns="http://www.w3.org/2000/svg">
<g filter="url(#filter0_d_16812_8846)">
<rect x="13" y="13" width="100" height="100" rx="50" fill="white" shape-rendering="crispEdges"/>
<path d="M43.8528 49.1719H44.8076C45.7625 49.2485 46.7063 49.5113 47.5075 50.0588C48.4623 50.6829 49.1427 51.6902 49.428 52.7961C49.7793 54.1648 49.6367 55.643 49.1317 56.957C48.9671 57.4278 48.8024 57.8876 48.6379 58.3474C49.4061 58.1504 50.1634 57.7891 50.7121 57.1978C51.3048 56.5956 51.612 55.7744 51.8096 54.9641C53.2145 54.9532 54.6192 54.9641 56.0131 54.9641C55.2887 56.8802 54.7509 58.9169 54.7948 60.9863C54.8058 63.3732 55.6838 65.6398 55.9143 67.9938C56.0899 69.5926 56.035 71.2348 55.5851 72.7788C55.168 74.224 54.3997 75.5708 53.3461 76.6549C52.2926 77.7499 50.9756 78.582 49.5598 79.1295C47.7489 79.8301 45.7844 80.1039 43.8418 80.0601C41.5261 80.0163 39.1884 79.4908 37.202 78.2754C35.4899 77.2352 34.0741 75.6585 33.3607 73.7752C32.6474 71.9028 32.7023 69.7349 33.5583 67.9173C34.2168 66.4939 35.4131 65.3441 36.8179 64.6653C38.5629 63.8332 40.5493 63.6142 42.448 63.8112C42.7114 63.1214 42.9748 62.4316 43.2492 61.7418C41.6468 61.052 40.1872 59.9242 39.3531 58.3694C38.069 56.0371 38.3543 52.8837 40.1981 50.9238C41.12 49.8836 42.47 49.2704 43.8528 49.1719ZM42.7992 54.0553C42.4809 54.7561 42.448 55.6101 42.7882 56.3109C43.1614 57.0883 43.7541 57.8109 44.5552 58.1613C44.7198 57.7891 44.8516 57.4058 45.0051 57.0335C45.2356 56.4313 45.5101 55.8401 45.5759 55.1941C45.6527 54.6575 45.5759 54.0663 45.2246 53.6392C44.8624 53.2013 44.226 53.037 43.6882 53.2122C43.2822 53.3436 42.9748 53.683 42.7992 54.0553ZM47.1782 62.2346C46.86 63.0995 46.5197 63.9645 46.2124 64.8405C47.1782 65.2894 48.177 65.7602 48.9342 66.5376C48.4623 67.753 47.9794 68.9574 47.4854 70.1619C46.7392 69.4173 45.8612 68.7933 44.8735 68.41C44.3357 69.8224 43.8199 71.2458 43.293 72.6583C41.9212 72.6583 40.5493 72.6583 39.1775 72.6583C39.7921 71.0159 40.3957 69.3844 41.0103 67.742C39.6604 67.6983 38.3104 68.3881 37.5751 69.5268C37.2678 70.0086 37.0813 70.578 37.1581 71.1583C37.2459 72.3628 37.8715 73.5014 38.8043 74.2679C40.0774 75.319 41.7566 75.757 43.3809 75.8775C44.7198 75.9651 46.1026 75.8884 47.3758 75.4613C48.5281 75.0891 49.6036 74.3993 50.35 73.4357C51.3377 72.1985 51.7109 70.556 51.6011 69.0013C51.4914 67.8078 51.2061 66.6362 50.9866 65.4646C50.734 64.1397 50.5255 62.7929 50.5255 61.4353C49.4501 61.8403 48.3305 62.1141 47.1782 62.2346Z" fill="#19488D"/>
<path d="M53.9049 53.4325C56.0231 51.823 57.0986 50.9251 57.7791 49.7426C58.7448 48.0674 58.1631 46.6549 56.934 46.0965C55.7926 45.5818 54.4316 46.0636 53.8939 47.1914C53.367 46.0746 52.0062 45.5818 50.8538 46.0965C49.6357 46.6549 49.043 48.0674 50.0087 49.7426C50.7111 50.9251 51.7867 51.823 53.9049 53.4325Z" fill="#E32227"/>
<path d="M59.5352 57.9979V57.976C59.5352 56.2898 60.8522 54.9102 62.6411 54.9102C63.7055 54.9102 64.3532 55.1948 64.9677 55.7204L64.1445 56.7059C63.6836 56.3226 63.2775 56.1036 62.5971 56.1036C61.6533 56.1036 60.896 56.9358 60.896 57.9432V57.965C60.896 59.049 61.6423 59.8374 62.6959 59.8374C63.1678 59.8374 63.5958 59.717 63.925 59.487V58.6439H62.608V57.5161H65.1872V60.0893C64.5727 60.6039 63.7384 61.0309 62.652 61.0309C60.8082 61.0417 59.5352 59.7498 59.5352 57.9979Z" fill="#19488D"/>
<path d="M66.082 58.6983V58.6764C66.082 57.3844 67.004 56.3223 68.3318 56.3223C69.8465 56.3223 70.5489 57.4939 70.5489 58.7858C70.5489 58.8845 70.5379 59.0048 70.5269 59.1253H67.3661C67.4978 59.7056 67.9039 60.0123 68.4745 60.0123C68.9026 60.0123 69.2209 59.8808 69.572 59.5523L70.3073 60.1983C69.8794 60.7239 69.2758 61.0414 68.4526 61.0414C67.0917 61.0414 66.082 60.0888 66.082 58.6983ZM69.2867 58.326C69.2098 57.7567 68.8697 57.3624 68.3318 57.3624C67.7941 57.3624 67.4538 57.7457 67.3441 58.326H69.2867Z" fill="#19488D"/>
<path d="M71.5 56.4106H72.7841V57.0566C73.0804 56.6734 73.4646 56.334 74.1121 56.334C75.0889 56.334 75.6595 56.98 75.6595 58.0202V60.9546H74.3755V58.4254C74.3755 57.8121 74.0901 57.5056 73.5963 57.5056C73.1023 57.5056 72.7951 57.8231 72.7951 58.4254V60.9546H71.511V56.4106H71.5Z" fill="#19488D"/>
<path d="M76.5625 58.6983V58.6764C76.5625 57.3844 77.4844 56.3223 78.8124 56.3223C80.3269 56.3223 81.0294 57.4939 81.0294 58.7858C81.0294 58.8845 81.0183 59.0048 81.0075 59.1253H77.8466C77.9784 59.7056 78.3845 60.0123 78.9551 60.0123C79.3831 60.0123 79.7013 59.8808 80.0526 59.5523L80.788 60.1983C80.3598 60.7239 79.7563 61.0414 78.9332 61.0414C77.5723 61.0414 76.5625 60.0888 76.5625 58.6983ZM79.7673 58.326C79.6905 57.7567 79.3502 57.3624 78.8124 57.3624C78.2747 57.3624 77.9344 57.7457 77.8247 58.326H79.7673Z" fill="#19488D"/>
<path d="M81.9766 56.4098H83.2607V57.3186C83.5239 56.6945 83.9521 56.2893 84.7093 56.3222V57.6689H84.6435C83.7874 57.6689 83.2607 58.1836 83.2607 59.2675V60.9428H81.9766V56.4098Z" fill="#19488D"/>
<path d="M85.0391 59.6395V59.6176C85.0391 58.6322 85.7963 58.1723 86.8719 58.1723C87.3328 58.1723 87.6621 58.249 87.9803 58.3585V58.2818C87.9803 57.7452 87.651 57.4497 87.0036 57.4497C86.5096 57.4497 86.1695 57.5372 85.7524 57.6905L85.4341 56.7051C85.939 56.4861 86.4219 56.3438 87.2012 56.3438C87.9035 56.3438 88.4083 56.5299 88.7375 56.8474C89.0778 57.1869 89.2315 57.6795 89.2315 58.2927V60.9206H87.9803V60.4279C87.6621 60.7782 87.2341 60.9972 86.6085 60.9972C85.7414 61.03 85.0391 60.5374 85.0391 59.6395ZM88.0023 59.3439V59.114C87.7828 59.0155 87.4974 58.9496 87.1791 58.9496C86.6304 58.9496 86.2901 59.1686 86.2901 59.5738V59.5958C86.2901 59.9461 86.5756 60.1432 86.9925 60.1432C87.5962 60.1432 88.0023 59.8148 88.0023 59.3439Z" fill="#19488D"/>
<path d="M91.663 54.7676H90.3789V60.9431H91.663V54.7676Z" fill="#19488D"/>
<path d="M59.7969 63.1875H61.2126L62.771 65.6839L64.3294 63.1875H65.7343V69.1001H64.4392V65.2349L62.771 67.7643H62.7381L61.0808 65.2678V69.1001H59.7969V63.1875Z" fill="#19488D"/>
<path d="M67.0547 62.9238H68.4156V64.0625H67.0547V62.9238ZM67.0877 64.5661H68.3717V69.0992H67.0877V64.5661Z" fill="#19488D"/>
<path d="M70.9247 62.9238H69.6406V69.0992H70.9247V62.9238Z" fill="#19488D"/>
<path d="M73.4794 62.9238H72.1953V69.0992H73.4794V62.9238Z" fill="#19488D"/>
<path d="M74.3359 68.4977L74.8846 67.6546C75.3785 68.0051 75.8943 68.1912 76.3223 68.1912C76.6955 68.1912 76.8601 68.0597 76.8601 67.8517V67.8298C76.8601 67.5451 76.4211 67.4576 75.9162 67.3043C75.2798 67.1181 74.5553 66.8225 74.5553 65.9465V65.9247C74.5553 65.0049 75.3017 64.4902 76.2126 64.4902C76.7832 64.4902 77.4198 64.6874 77.9028 65.0159L77.4088 65.9027C76.9589 65.64 76.5089 65.4757 76.1797 65.4757C75.8614 65.4757 75.7078 65.6072 75.7078 65.7932V65.8152C75.7078 66.067 76.1357 66.1875 76.6297 66.3516C77.2662 66.5596 78.0015 66.8663 78.0015 67.6984V67.7203C78.0015 68.7277 77.2443 69.1875 76.2675 69.1875C75.6528 69.1875 74.9395 68.9795 74.3359 68.4977Z" fill="#19488D"/>
</g>
<defs>
<filter id="filter0_d_16812_8846" x="0" y="0" width="126" height="126" filterUnits="userSpaceOnUse" color-interpolation-filters="sRGB">
<feFlood flood-opacity="0" result="BackgroundImageFix"/>
<feColorMatrix in="SourceAlpha" type="matrix" values="0 0 0 0 0 0 0 0 0 0 0 0 0 0 0 0 0 0 127 0" result="hardAlpha"/>
<feOffset/>
<feGaussianBlur stdDeviation="6.5"/>
<feComposite in2="hardAlpha" operator="out"/>
<feColorMatrix type="matrix" values="0 0 0 0 0.831731 0 0 0 0 0.831731 0 0 0 0 0.831731 0 0 0 0.25 0"/>
<feBlend mode="normal" in2="BackgroundImageFix" result="effect1_dropShadow_16812_8846"/>
<feBlend mode="normal" in="SourceGraphic" in2="effect1_dropShadow_16812_8846" result="shape"/>
</filter>
</defs>
</svg>
