<svg width="126" height="126" viewBox="0 0 126 126" fill="none" xmlns="http://www.w3.org/2000/svg">
<g filter="url(#filter0_d_16833_8360)">
<rect x="13" y="13" width="100" height="100" rx="50" fill="white" shape-rendering="crispEdges"/>
<g clip-path="url(#clip0_16833_8360)">
<mask id="mask0_16833_8360" style="mask-type:luminance" maskUnits="userSpaceOnUse" x="32" y="53" width="63" height="20">
<path d="M94.5 53H32V72.9439H94.5V53Z" fill="white"/>
</mask>
<g mask="url(#mask0_16833_8360)">
<path d="M92.8564 71.4918H93.0103C93.1811 71.4918 93.335 71.4405 93.335 71.2866C93.335 71.167 93.2495 71.0816 93.0444 71.0816C92.959 71.0816 92.9078 71.0986 92.8735 71.0986V71.4918H92.8564ZM92.8394 72.2791H92.5146V70.8924C92.6343 70.8753 92.8222 70.8411 93.0456 70.8411C93.302 70.8411 93.4216 70.8924 93.5254 70.9436C93.5938 70.9949 93.6621 71.1145 93.6621 71.2341C93.6621 71.388 93.5425 71.5076 93.3716 71.5589V71.576C93.5082 71.6273 93.5766 71.7298 93.6279 71.9178C93.6791 72.1229 93.6962 72.2083 93.7305 72.2595H93.3886C93.3545 72.2083 93.3203 72.0886 93.2861 71.9349C93.252 71.781 93.1836 71.7128 92.9956 71.7128H92.8418V72.2779L92.8394 72.2791ZM93.0615 70.4469C92.445 70.4469 92.0008 70.9436 92.0008 71.5589C92.0008 72.1741 92.4634 72.671 93.0786 72.671C93.6939 72.671 94.1394 72.1741 94.1394 71.5589C94.1394 70.9436 93.6939 70.4469 93.0615 70.4469ZM93.0786 70.1562C93.883 70.1562 94.4995 70.7728 94.4995 71.543C94.4995 72.3133 93.883 72.9469 93.0786 72.9469C92.2741 72.9469 91.6406 72.3304 91.6406 71.543C91.6406 70.7556 92.2741 70.1562 93.0786 70.1562Z" fill="#02A6E3"/>
<path d="M39.3084 67.4672H44.6147L46.5654 72.3794H50.1421L42.4748 53.998H39.7539L32 72.3794H35.252C35.252 72.3794 38.5039 64.335 38.5723 64.1982C38.6406 64.0444 38.709 63.8906 38.7773 63.7014C38.8457 63.5134 38.9482 63.2729 39.0508 62.9824L39.5818 61.7153C39.7527 61.304 39.8894 60.9622 39.9932 60.6887C40.0957 60.3982 40.2153 60.1406 40.3179 59.8672C40.4204 59.6108 40.523 59.3362 40.6084 59.0627C40.6939 58.7893 40.8135 58.4634 40.9331 58.0703H41.0185C41.1382 58.4634 41.2578 58.7893 41.3433 59.0627C41.4287 59.3362 41.5142 59.5937 41.5996 59.8501C41.6851 60.0894 41.7705 60.364 41.8901 60.6545C41.9927 60.9451 42.1294 61.2881 42.3003 61.7153L42.8313 63.0337C42.9338 63.29 43.0364 63.5134 43.1047 63.6843C43.1731 63.8552 43.2414 64.0261 43.2927 64.1641C43.344 64.3179 43.4124 64.4546 43.4807 64.6096C43.5491 64.7634 43.72 65.1064 43.72 65.1064H38.1743L39.3035 67.4685L39.3084 67.4672Z" fill="#02A6E3"/>
<path d="M57.6677 62.3201H54.4328C54.4328 62.3713 54.4499 72.3836 54.4499 72.3836H51.2834V62.3201H48.8359V60.0093H51.2834V58.6567C51.2834 57.8352 51.4031 57.082 51.6593 56.4143C51.8986 55.7466 52.2587 55.1643 52.7372 54.6858C53.1999 54.2061 53.7809 53.8301 54.4487 53.5396C55.1164 53.249 55.8696 53.0769 56.6911 53.0256C57.1013 52.9915 57.4443 52.9915 57.7348 53.0256C58.0253 53.0598 58.3683 53.1282 58.7614 53.2136L58.2646 55.5073C58.0596 55.4731 57.8716 55.4561 57.6994 55.439C57.5273 55.4219 57.3063 55.439 57.0317 55.4561C56.0392 55.5415 55.3373 55.8491 54.9431 56.363C54.7379 56.6365 54.6013 56.9624 54.5317 57.3213C54.4633 57.6802 54.4292 58.2624 54.4292 59.0498V60.0081H57.7153V62.3188H57.6641L57.6677 62.3201Z" fill="#02A6E3"/>
<path d="M78.4982 70.5632C78.3103 70.512 78.1393 70.4095 78.0186 70.2898C77.9502 70.2043 77.8818 70.1018 77.8476 70.0163C77.7963 69.9308 77.7622 69.7942 77.7451 69.6403C77.7109 69.4866 77.6938 69.2815 77.6938 69.041C77.6767 68.8017 77.6767 68.493 77.6767 68.0998V64.4548C77.6767 62.8801 77.4033 61.751 76.8552 61.0832C76.4451 60.6206 75.9311 60.2617 75.2634 60.0225C74.6127 59.7832 73.8596 59.6465 73.0209 59.6465C71.4976 59.6465 69.8886 60.092 68.2284 60.9648V63.344C69.0499 62.9155 69.7519 62.6079 70.3171 62.4199C70.8823 62.2319 71.4462 62.1123 72.0456 62.0781C72.8158 62.0268 73.4323 62.1636 73.8937 62.5066C74.3564 62.8484 74.5786 63.3281 74.5786 63.9617V64.5781C73.4152 64.6636 72.4899 64.8003 71.5658 64.9883C70.6418 65.1763 69.9399 65.3984 69.4772 65.639C68.8096 65.9807 68.2968 66.4605 67.9026 67.0598C67.5094 67.6592 67.3203 68.3098 67.3203 69.0105C67.3203 70.1738 67.6279 71.065 68.2614 71.6802C68.5691 72.0048 68.9804 72.2796 69.4589 72.4675C69.9387 72.6555 70.4343 72.7581 70.9311 72.7581C71.3242 72.7581 71.6672 72.741 71.9577 72.6897C72.2653 72.6385 72.5571 72.5701 72.8647 72.4505C73.1723 72.3478 73.4812 72.177 73.8229 71.9878C74.1477 71.7827 74.5419 71.5251 74.9863 71.1833C75.2084 72.022 75.8591 72.5188 76.9369 72.6726C77.2446 72.7067 77.5363 72.7238 77.8268 72.7067C78.1003 72.6897 78.4774 72.6385 78.9218 72.553L79.3319 70.6023C78.9561 70.6365 78.6813 70.6193 78.4933 70.5681L78.4982 70.5632ZM74.5456 67.3626V69.7417C73.5703 70.324 72.7829 70.6316 72.2007 70.6316C71.6183 70.6316 71.1228 70.4777 70.7627 70.1518C70.4208 69.8271 70.2487 69.3987 70.2999 68.8677C70.3342 68.1316 70.6931 67.5663 71.3608 67.1905C72.0286 66.7973 73.0209 66.5398 74.5444 66.3347V67.3613L74.5456 67.3626Z" fill="#02A6E3"/>
<path d="M63.5728 53.2266H60.4062V72.3795H63.5728V53.2266Z" fill="#02A6E3"/>
<path d="M88.7666 63.2029C88.2356 62.8611 87.7741 62.6206 87.3798 62.4839C86.9868 62.3472 86.5583 62.2959 86.0786 62.2959C85.5988 62.2959 85.1544 62.3813 84.7602 62.5693C84.3488 62.7573 84.0071 63.0149 83.7164 63.3225C83.4259 63.6472 83.1854 64.0244 83.0317 64.4859C82.8608 64.9314 82.7753 65.427 82.7753 65.958C82.7753 66.5403 82.8608 67.0871 83.0317 67.584C83.2026 68.0809 83.4431 68.508 83.7507 68.8681C84.0583 69.227 84.4184 69.5017 84.8457 69.7067C85.2741 69.9119 85.7356 70.0144 86.2323 70.0144C86.5058 70.0144 86.7633 69.9974 86.9856 69.9802C87.2077 69.946 87.4482 69.9119 87.6533 69.8435C87.8754 69.7751 88.0988 69.6898 88.3209 69.5871C88.5432 69.4846 88.8178 69.3309 89.1083 69.177L90.1521 71.334C88.8678 72.3094 87.3798 72.7891 85.7197 72.7891C84.7786 72.7891 83.9399 72.6353 83.1696 72.3094C82.3993 71.9846 81.7487 71.5391 81.2189 70.9398C80.6708 70.3574 80.2607 69.6384 79.9689 68.8169C79.6784 67.9954 79.5234 67.0712 79.5234 66.0617C79.5234 65.2231 79.6943 64.4016 80.0373 63.6143C80.3791 62.8269 80.8417 62.1421 81.4241 61.5598C82.0063 60.9776 82.6741 60.499 83.4431 60.156C84.2133 59.8142 85.0178 59.625 85.8564 59.625C86.7463 59.625 87.4994 59.7275 88.1501 59.9155C88.8007 60.1035 89.4343 60.4294 90.0837 60.8909L88.7653 63.2017L88.7666 63.2029Z" fill="#02A6E3"/>
<path d="M61.0412 58.4622C60.8874 59.3008 60.6823 60.4129 59.9804 61.166C59.3127 61.9021 58.4569 62.4844 57.5158 63.0654C57.1911 63.2705 57.0703 63.4768 57.0703 63.7844C57.0703 64.0066 57.1728 64.1946 57.3437 64.1946C57.5658 64.1946 57.7026 64.075 58.0286 64.075C58.4399 64.075 58.9356 64.3997 59.2089 64.5547C58.8842 64.794 58.2678 65.1199 58.2678 65.6667C58.2678 66.0781 58.7304 66.6079 59.9621 66.6079C61.1083 66.6079 62.6147 65.3067 63.3849 64.7085C63.7781 63.4414 63.0773 60.8914 61.0399 58.4609" fill="white"/>
<path d="M62.0117 71.94C61.8078 72.4771 62.0691 72.7053 62.5171 72.7053C63.4423 70.5666 64.0282 67.5478 64.1992 65.6008C63.9098 65.5678 63.6291 65.5361 63.4252 65.5117C63.4252 68.2326 62.7819 70.0625 62.0117 71.94Z" fill="white"/>
<path d="M62.5156 72.7022H64.5323C65.2536 70.5513 65.3269 66.1483 65.3269 65.7162C65.0705 65.7003 64.6262 65.6465 64.199 65.5977C64.0244 67.5448 63.4409 70.5672 62.5169 72.7022H62.5156Z" fill="white"/>
<path d="M64.5312 72.7028H64.7961C65.4516 70.6948 65.57 66.1769 65.57 65.7814C65.4236 65.7607 65.3332 65.7168 65.3259 65.7168C65.3259 66.1489 65.2526 70.5519 64.5312 72.7028Z" fill="white"/>
<path d="M64.7969 72.7014H64.9104C65.5379 70.7507 65.6758 66.1792 65.6806 65.7971C65.644 65.7935 65.6038 65.7886 65.5708 65.7812C65.5671 66.1768 65.4524 70.6946 64.7969 72.7026V72.7014Z" fill="white"/>
<path d="M64.9102 72.7011H64.9187C65.5462 70.7541 65.684 66.179 65.6889 65.7969H65.6768C65.6768 66.1801 65.5388 70.7505 64.9114 72.7011H64.9102Z" fill="white"/>
<path d="M64.918 72.7011H64.9423C65.5661 70.7664 65.7077 66.179 65.7162 65.8005C65.7077 65.8005 65.7003 65.7969 65.6918 65.7969C65.6882 66.1801 65.5453 70.759 64.918 72.7011Z" fill="white"/>
<path d="M64.9453 72.7014H66.2942C66.5993 71.4185 66.9912 66.167 67.0193 65.8985C66.9668 65.8899 66.2246 65.8619 65.7192 65.8008C65.7156 66.1793 65.5691 70.7703 64.9453 72.7014Z" fill="white"/>
<path d="M66.293 72.7013C66.5981 71.4184 66.99 66.1669 67.0181 65.8984C67.0668 65.9069 67.1316 65.9106 67.2133 65.9192C67.2097 66.6564 66.9155 71.2146 66.647 72.7013H66.293Z" fill="white"/>
<path d="M66.6406 72.7016H67.052C67.1704 71.8508 67.2839 70.4617 67.362 69.1336C67.2485 69.1298 67.1338 69.0762 67.0275 69.0273C66.9176 70.4446 66.7785 71.9558 66.6406 72.7016Z" fill="white"/>
<path d="M67.0312 69.0276C67.1375 69.0801 67.2559 69.1289 67.3657 69.1338C67.4426 67.8058 67.4915 66.5386 67.4792 65.9405C67.3816 65.9319 67.2925 65.9246 67.2108 65.916C67.2108 66.2871 67.1375 67.6104 67.0312 69.0289V69.0276Z" fill="#FEFFFF"/>
<path d="M67.0559 72.7018C67.3611 72.7018 67.5613 72.6285 67.6956 72.515C67.8457 71.5409 67.9153 70.3849 67.9519 69.2363C67.7968 69.2033 67.6052 69.1472 67.3647 69.1387C67.2878 70.4668 67.1731 71.8559 67.0547 72.703L67.0559 72.7018Z" fill="white"/>
<path d="M67.3633 69.1387C67.6002 69.1472 67.7954 69.2033 67.9504 69.2363C67.9712 68.6613 67.9834 68.0877 67.9908 67.5419C67.8284 67.4162 67.644 67.2857 67.4537 67.2734C67.4378 67.8277 67.4048 68.4746 67.3645 69.1387H67.3633Z" fill="#FBFBFD"/>
<path d="M67.457 67.2695C67.6488 67.2817 67.8282 67.4123 67.9942 67.538C68.0064 66.9875 68.0149 66.4663 68.0272 65.9939C67.844 65.9732 67.6524 65.9573 67.4815 65.9414C67.4852 66.2465 67.4778 66.7117 67.457 67.2695Z" fill="#F8FAFC"/>
<path d="M67.6953 72.5152C67.8259 72.3968 67.8906 72.2344 67.9199 72.055C68.0993 70.9588 68.2214 70.1079 68.3154 69.207C68.2299 69.284 68.1116 69.2718 67.9566 69.24C67.9113 70.385 67.8431 71.541 67.6953 72.5152Z" fill="white"/>
<path d="M67.9492 69.2373C68.0261 69.2532 68.0957 69.2653 68.1567 69.2653C68.1847 68.76 68.2055 68.2473 68.2262 67.7138C68.1531 67.6687 68.0761 67.6077 67.9943 67.543C67.9821 68.0886 67.97 68.6587 67.9492 69.2373Z" fill="#EEF1F7"/>
<path d="M67.9922 67.5363C68.0739 67.6011 68.1508 67.6621 68.2241 67.7072C68.2448 67.1738 68.2643 66.6159 68.2888 66.0251C68.2033 66.0129 68.1142 66.0043 68.0202 65.9922C68.0117 66.4682 68.0043 66.9907 67.9922 67.5363Z" fill="#E3E8F2"/>
<path d="M68.1562 69.2598C68.2173 69.2562 68.2661 69.239 68.3112 69.2024C68.3564 68.7508 68.3968 68.2893 68.4334 67.7767C68.3686 67.7803 68.3027 67.7523 68.2295 67.707C68.205 68.2405 68.1843 68.7544 68.1562 69.2585V69.2598Z" fill="#E2E8F2"/>
<path d="M68.2266 67.7075C68.2998 67.7528 68.3694 67.7808 68.4304 67.7771C68.4671 67.2644 68.4952 66.7054 68.5282 66.062C68.4549 66.0499 68.3731 66.0376 68.2913 66.0254C68.2669 66.6163 68.2462 67.1741 68.2266 67.7075Z" fill="#D2DBEB"/>
<path d="M63.4255 65.5112C63.9309 65.5637 64.8965 65.6857 65.3237 65.7151C65.3237 65.5197 65.3238 65.3562 65.3201 65.2146C64.8758 65.2354 63.959 65.2793 63.4219 65.1133C63.4255 65.2354 63.4255 65.3538 63.4255 65.5125V65.5112Z" fill="white"/>
<path d="M63.4186 65.1182C63.9557 65.2854 64.8689 65.2402 65.3169 65.2195C65.3133 65.0767 65.3046 64.9546 65.2925 64.8411C64.8322 64.9143 63.9644 64.9839 63.3906 64.7031C63.4114 64.8704 63.4186 64.9961 63.4186 65.1182Z" fill="white"/>
<path d="M63.3953 64.7009C63.3623 64.3664 63.322 64.281 63.2695 63.9844C63.5869 64.2529 63.9422 64.3384 64.2754 64.3469C64.3364 64.6118 64.3609 64.6326 64.3889 64.9048C64.0387 64.8926 63.6797 64.8401 63.3953 64.7009Z" fill="white"/>
<path d="M64.385 64.9014C64.7316 64.9099 65.0648 64.8733 65.2932 64.8367C65.281 64.7354 65.2687 64.6365 65.248 64.5352C65.0112 64.5803 64.6816 64.6328 64.3398 64.6169C64.3606 64.6938 64.3727 64.7671 64.385 64.9026V64.9014Z" fill="#F4F6FA"/>
<path d="M64.3457 64.6218C64.6875 64.634 65.0183 64.5852 65.2538 64.54C65.2331 64.4424 65.2087 64.3362 65.177 64.2227C64.9328 64.28 64.6142 64.3533 64.2773 64.3447C64.3055 64.479 64.3262 64.5522 64.347 64.6218H64.3457Z" fill="#EEF1F7"/>
<path d="M65.3249 65.7155C65.3372 65.7155 65.4263 65.7606 65.569 65.7802C65.5777 65.6179 65.5849 65.4579 65.5898 65.3041C65.447 65.2919 65.3408 65.2309 65.3164 65.2345C65.32 65.3725 65.3249 65.5275 65.3249 65.7155Z" fill="white"/>
<path d="M65.3164 65.2371C65.3408 65.2334 65.447 65.2981 65.5898 65.3066C65.5984 65.1565 65.602 65.0088 65.602 64.8672C65.4641 64.8831 65.3494 64.8586 65.2969 64.8709C65.309 64.9844 65.3176 65.1028 65.3176 65.2371H65.3164Z" fill="#FAFBFD"/>
<path d="M65.2992 64.8733C65.3517 64.8611 65.4664 64.8855 65.6043 64.8696C65.6043 64.7317 65.6007 64.5962 65.592 64.4668C65.4578 64.5071 65.3358 64.5364 65.2539 64.5559C65.2747 64.6621 65.2905 64.7634 65.2992 64.8733Z" fill="#EEF1F7"/>
<path d="M65.2527 64.5552C65.3345 64.5344 65.4565 64.5063 65.5908 64.4661C65.5823 64.3403 65.5628 64.217 65.5384 64.1035C65.4078 64.156 65.2698 64.2012 65.1758 64.2219C65.2088 64.344 65.2332 64.4502 65.2527 64.5564V64.5552Z" fill="#E2E8F2"/>
<path d="M65.5703 65.781C65.5948 65.7846 65.6228 65.7895 65.6522 65.7932C65.6607 65.6345 65.6729 65.4758 65.6851 65.3208C65.6571 65.3208 65.6241 65.3086 65.5961 65.3086C65.5874 65.4587 65.5802 65.6186 65.5716 65.781H65.5703Z" fill="white"/>
<path d="M65.5898 65.3091C65.618 65.3091 65.651 65.3213 65.679 65.3213C65.6912 65.1626 65.6997 65.0076 65.7035 64.8574C65.6705 64.866 65.6338 64.866 65.6021 64.8696C65.6021 65.0076 65.5985 65.1553 65.5898 65.3091Z" fill="#F9FAFC"/>
<path d="M65.6059 64.8701C65.6389 64.8616 65.6755 64.8665 65.7072 64.8579C65.7109 64.7078 65.7109 64.5649 65.7072 64.4258C65.6706 64.438 65.634 64.4539 65.5938 64.4661C65.6023 64.5967 65.6059 64.7273 65.6059 64.8689V64.8701Z" fill="#EDF0F7"/>
<path d="M65.5927 64.4658C65.6331 64.4536 65.6697 64.4377 65.7063 64.4255C65.6977 64.2913 65.6856 64.1643 65.6611 64.0508C65.6208 64.0667 65.5793 64.0837 65.5391 64.0996C65.5671 64.218 65.5842 64.3401 65.5916 64.4658H65.5927Z" fill="#E0E7F1"/>
<path d="M65.6496 65.7947C65.6618 65.7947 65.6777 65.7983 65.6899 65.7983C65.7021 65.6433 65.7143 65.4846 65.7266 65.3259C65.7107 65.3259 65.6984 65.3223 65.6813 65.3223C65.6728 65.4773 65.6606 65.636 65.6484 65.7947H65.6496Z" fill="white"/>
<path d="M65.6797 65.322C65.6956 65.322 65.7078 65.3257 65.7248 65.3257C65.7371 65.167 65.7493 65.0034 65.7529 64.8496C65.7371 64.8533 65.7199 64.8533 65.7041 64.8581C65.7004 65.0083 65.6919 65.1633 65.6797 65.322Z" fill="#F9FAFC"/>
<path d="M65.7109 64.8572C65.7268 64.8535 65.7438 64.8535 65.7597 64.8486C65.7683 64.6936 65.7683 64.5435 65.7634 64.4043C65.7427 64.4128 65.7268 64.4165 65.7109 64.425C65.7146 64.5593 65.7146 64.7058 65.7109 64.8572Z" fill="#EDF0F7"/>
<path d="M65.7053 64.4246C65.726 64.416 65.7419 64.4124 65.7578 64.4038C65.7542 64.2659 65.7419 64.1353 65.7175 64.0254C65.6968 64.0339 65.6773 64.0413 65.6602 64.0498C65.6845 64.1633 65.7004 64.2903 65.7053 64.4246Z" fill="#DFE5F1"/>
<path d="M65.6953 65.7966C65.7563 65.8051 65.8173 65.8125 65.8869 65.8174C65.8992 65.6745 65.9113 65.5159 65.9272 65.345C65.8626 65.345 65.7966 65.3242 65.7319 65.3242C65.7161 65.4829 65.7038 65.6416 65.6953 65.7966Z" fill="white"/>
<path d="M65.7278 65.3247C65.7888 65.3247 65.8584 65.3455 65.9231 65.3455C65.9389 65.1746 65.9512 64.9951 65.9633 64.8242C65.8938 64.8364 65.8291 64.8364 65.7596 64.8486C65.7509 65.0037 65.7388 65.166 65.7266 65.3247H65.7278Z" fill="#F9FAFC"/>
<path d="M65.7578 64.8491C65.8274 64.8369 65.8922 64.8369 65.9617 64.8247C65.9703 64.6502 65.9776 64.478 65.9739 64.3242C65.9043 64.3486 65.8359 64.3767 65.7616 64.406C65.7652 64.5439 65.7652 64.6953 65.7578 64.8503V64.8491Z" fill="#EDF0F7"/>
<path d="M65.763 64.4048C65.8363 64.3767 65.9058 64.3523 65.9754 64.323C65.9718 64.168 65.9632 64.03 65.9388 63.9238C65.8692 63.9568 65.8008 63.9885 65.7227 64.0252C65.7472 64.135 65.7593 64.2656 65.763 64.4036V64.4048Z" fill="#DFE5F1"/>
<path d="M65.8828 65.818C66.1269 65.8425 66.4004 65.8584 66.6164 65.8754C66.6249 65.7692 66.6446 65.5861 66.6616 65.3664C66.4541 65.3542 66.1892 65.342 65.9243 65.3505C65.9121 65.5177 65.8962 65.6801 65.8841 65.8192L65.8828 65.818Z" fill="white"/>
<path d="M65.9219 65.3469C66.1867 65.3384 66.4516 65.3555 66.6592 65.3628C66.68 65.1382 66.6995 64.8782 66.7166 64.6133C66.5249 64.6743 66.2808 64.739 65.9634 64.8208C65.9513 65.0002 65.939 65.1797 65.9231 65.3457L65.9219 65.3469Z" fill="#F9FAFC"/>
<path d="M65.9622 64.8242C66.2796 64.7473 66.5249 64.6814 66.7154 64.6167C66.7313 64.3555 66.7434 64.0918 66.7434 63.8672C66.5689 64.0173 66.3407 64.1772 65.9732 64.3237C65.9768 64.4788 65.9696 64.6497 65.9609 64.8242H65.9622Z" fill="#EDF0F7"/>
<path d="M65.9741 64.3237C66.3404 64.1736 66.5686 64.0186 66.7444 63.8672C66.7444 63.6426 66.7359 63.4558 66.7077 63.3496C66.5454 63.5413 66.3294 63.7451 65.9375 63.9246C65.9619 64.0344 65.9705 64.1736 65.9741 64.3237Z" fill="#DFE5F1"/>
<path d="M66.6145 65.8742C66.8307 65.8865 66.9929 65.895 67.0174 65.8987C67.0259 65.8291 67.0454 65.6301 67.0699 65.3652C67.021 65.386 66.866 65.3774 66.6585 65.3652C66.6427 65.585 66.6219 65.7681 66.6133 65.8742H66.6145Z" fill="white"/>
<path d="M66.6562 65.3667C66.8637 65.3789 67.0188 65.3875 67.0676 65.3667C67.092 65.0982 67.125 64.7637 67.1494 64.4219C67.0431 64.4951 66.9053 64.5561 66.7136 64.6172C66.6978 64.8821 66.677 65.1421 66.6562 65.3667Z" fill="#F9FAFC"/>
<path d="M66.7148 64.6167C66.9065 64.5557 67.0443 64.4946 67.1506 64.4214C67.175 64.0796 67.1957 63.7366 67.2031 63.4473C67.0407 63.5693 66.9175 63.7158 66.7392 63.8672C66.7428 64.0918 66.7307 64.3555 66.7148 64.6167Z" fill="#EDF0F7"/>
<path d="M66.7449 63.8679C66.9195 63.7178 67.0464 63.575 67.2088 63.448C67.2174 63.1624 67.2088 62.9353 67.1758 62.8242C66.9879 62.9707 66.8743 63.1538 66.707 63.3455C66.7352 63.4553 66.7437 63.6433 66.7437 63.8667L66.7449 63.8679Z" fill="#DEE5F1"/>
<path d="M67.0156 65.9008C67.0851 65.9095 67.1829 65.9216 67.3013 65.929C67.3098 65.8155 67.3343 65.575 67.3659 65.2734C67.2475 65.3259 67.1414 65.3625 67.073 65.3674C67.0449 65.6323 67.0241 65.8313 67.0156 65.9008Z" fill="white"/>
<path d="M67.0703 65.3655C67.1436 65.3618 67.2448 65.3252 67.3632 65.2715C67.3913 64.97 67.4279 64.6038 67.4572 64.2363C67.3388 64.3218 67.2326 64.3865 67.1521 64.4243C67.1277 64.7625 67.0996 65.0969 67.0703 65.3655Z" fill="#F8FAFC"/>
<path d="M67.3047 65.9295C67.4231 65.9417 67.5611 65.9538 67.7038 65.9661C67.7161 65.7463 67.7404 65.4412 67.7649 65.0859C67.6269 65.1506 67.4878 65.2202 67.3693 65.2727C67.3413 65.5742 67.3119 65.8147 67.3047 65.9282V65.9295Z" fill="#F8FAFC"/>
<path d="M67.3672 65.2725C67.4857 65.22 67.6236 65.1541 67.7628 65.0857C67.7872 64.7354 67.8116 64.3398 67.8323 63.9492C67.7066 64.0505 67.5797 64.1531 67.4612 64.2349C67.4332 64.606 67.3966 64.9722 67.3672 65.2737V65.2725Z" fill="#EEF1F7"/>
<path d="M67.1562 64.4214C67.238 64.3884 67.3479 64.3201 67.4614 64.2346C67.4895 63.8684 67.5139 63.4973 67.5225 63.1836C67.4126 63.2935 67.3028 63.3838 67.2088 63.4485C67.2003 63.7378 67.1806 64.0845 67.1562 64.4226V64.4214Z" fill="#E7ECF4"/>
<path d="M67.2088 63.448C67.3028 63.3833 67.4127 63.2893 67.5225 63.1831C67.531 62.8694 67.5225 62.6167 67.4859 62.4824C67.3797 62.6289 67.2735 62.751 67.1758 62.8291C67.2088 62.9353 67.2124 63.1636 67.2088 63.448Z" fill="#D7DFEE"/>
<path d="M67.4609 64.2344C67.5794 64.1489 67.7052 64.0513 67.8321 63.9487C67.8528 63.5581 67.8602 63.1663 67.8564 62.8281C67.7467 62.9539 67.6319 63.0772 67.5183 63.1821C67.5147 63.4959 67.4903 63.8669 67.4609 64.2332V64.2344Z" fill="#DCE3EF"/>
<path d="M67.5239 63.1833C67.6338 63.0735 67.7522 62.9514 67.8621 62.8293C67.8583 62.4875 67.8376 62.1982 67.7973 61.998C67.6997 62.1689 67.5972 62.3362 67.4922 62.4827C67.5251 62.6169 67.5324 62.8733 67.5251 63.1833H67.5239Z" fill="#CAD4E7"/>
<path d="M67.707 65.9646C67.8498 65.9769 67.9999 65.9927 68.1428 66.0097C68.1587 65.6875 68.1758 65.3091 68.1879 64.9062C68.0537 64.9551 67.9108 65.0198 67.768 65.0857C67.7399 65.4397 67.7192 65.7461 67.707 65.9659V65.9646Z" fill="#E6EAF4"/>
<path d="M67.7617 65.0859C67.8996 65.0212 68.0473 64.9553 68.1816 64.9065C68.1938 64.5037 68.1975 64.0801 68.1975 63.6602C68.084 63.7456 67.957 63.8469 67.8312 63.9495C67.8105 64.3401 67.7861 64.7356 67.7617 65.0859Z" fill="#D7DFEE"/>
<path d="M68.1367 66.0101C68.2795 66.026 68.4137 66.043 68.5273 66.0626C68.5431 65.6915 68.5481 65.2727 68.5395 64.8284C68.4382 64.8247 68.3112 64.8565 68.177 64.9053C68.1683 65.3081 68.1526 65.6828 68.1367 66.0088V66.0101Z" fill="#C8D3E7"/>
<path d="M68.1797 64.9067C68.3139 64.8579 68.4409 64.825 68.5423 64.8298C68.5337 64.3855 68.5142 63.9253 68.4849 63.4688C68.4117 63.5054 68.3103 63.575 68.1956 63.6604C68.1956 64.0803 68.1919 64.5039 68.1797 64.9067Z" fill="#B5C5DE"/>
<path d="M67.832 63.9478C67.9578 63.8464 68.0848 63.7439 68.1983 63.6585C68.1947 63.2385 68.186 62.832 68.1617 62.4609C68.0725 62.5745 67.97 62.7014 67.8602 62.8271C67.8602 63.1689 67.8479 63.5559 67.832 63.9478Z" fill="#C2CFE4"/>
<path d="M67.8576 62.8281C67.9675 62.7024 68.0701 62.5754 68.1592 62.4619C68.1347 62.0908 68.0981 61.7612 68.0493 61.5C67.9761 61.655 67.887 61.8259 67.793 61.9968C67.8381 62.197 67.854 62.4851 67.8576 62.8281Z" fill="#B1C1DC"/>
<path d="M68.2007 63.6597C68.3142 63.5742 68.4131 63.5046 68.4899 63.468C68.4619 63.0164 68.4204 62.572 68.3764 62.168C68.3276 62.2449 68.2544 62.3474 68.1641 62.4609C68.1848 62.832 68.1971 63.2434 68.2007 63.6584V63.6597Z" fill="#A0B4D4"/>
<path d="M68.1604 62.4612C68.2495 62.3477 68.3227 62.2451 68.3727 62.1682C68.3276 61.7654 68.2751 61.4065 68.2178 61.1172C68.1811 61.2112 68.1238 61.3455 68.0469 61.5005C68.0994 61.7617 68.136 62.0913 68.1604 62.4624V62.4612Z" fill="#8FA7CC"/>
<path d="M63.2654 63.9853C63.5828 64.2539 63.938 64.3393 64.2713 64.3479C64.1895 63.9402 64.1125 63.6228 64.0271 63.3249C63.6438 63.1174 63.2324 62.8196 62.8906 62.5059C63.0212 62.8599 63.1433 63.3127 63.2654 63.9841V63.9853Z" fill="white"/>
<path d="M62.8918 62.5027C63.2336 62.8201 63.645 63.1179 64.0283 63.3218C63.9428 63.0203 63.8488 62.7395 63.7427 62.405C63.3155 62.2305 62.8503 61.9485 62.4805 61.5859C62.6306 61.8838 62.7661 62.1438 62.8918 62.5027Z" fill="white"/>
<path d="M64.2763 64.3472C64.6145 64.3557 64.9318 64.2776 65.176 64.2251C65.1393 64.0872 65.0747 63.8711 65.0051 63.5977C64.7683 63.6465 64.4106 63.5281 64.0273 63.3242C64.1165 63.6221 64.1946 63.9395 64.2763 64.3472Z" fill="#EBEEF6"/>
<path d="M64.0281 63.321C64.4113 63.5286 64.769 63.6433 65.0058 63.5945C64.9362 63.321 64.8593 62.9915 64.7935 62.6167C64.5652 62.657 64.1746 62.5801 63.7461 62.4043C63.8473 62.7388 63.9413 63.0232 64.0268 63.321H64.0281Z" fill="#F1F4F9"/>
<path d="M65.1751 64.2229C65.3008 64.1948 65.4973 64.1253 65.6633 64.052C65.6146 63.9177 65.5498 63.7102 65.4717 63.4453C65.2972 63.5149 65.1177 63.5759 65.0078 63.5955C65.0726 63.8689 65.1336 64.0837 65.1751 64.2229Z" fill="#DEE5F1"/>
<path d="M65.0052 63.5937C65.1151 63.573 65.2982 63.512 65.4691 63.4436C65.3958 63.1787 65.3141 62.8528 65.2371 62.4902C65.0541 62.5598 64.8868 62.6038 64.7891 62.6208C64.8587 62.9919 64.9356 63.3215 65.0052 63.595V63.5937Z" fill="#E7ECF4"/>
<path d="M65.6604 64.0491C65.697 64.0332 65.7372 64.0161 65.7702 64.0002C65.7251 63.866 65.6604 63.6584 65.5871 63.3887C65.5469 63.4045 65.5102 63.4253 65.4688 63.4412C65.5456 63.706 65.6152 63.9136 65.6604 64.0478V64.0491Z" fill="#DBE2EF"/>
<path d="M65.4703 63.4434C65.5105 63.4275 65.552 63.4104 65.5887 63.3909C65.5154 63.126 65.4385 62.8 65.364 62.4375C65.3238 62.4534 65.2787 62.4741 65.2383 62.49C65.3153 62.8525 65.397 63.1785 65.4703 63.4434Z" fill="#E3E9F3"/>
<path d="M65.7727 64C65.8301 63.9756 65.8826 63.9475 65.9351 63.9231C65.8863 63.7888 65.8216 63.5813 65.7483 63.3164C65.6958 63.3408 65.6421 63.3652 65.5859 63.3896C65.6592 63.6582 65.7239 63.8657 65.7739 64.0012L65.7727 64Z" fill="#DAE1EE"/>
<path d="M65.592 63.3911C65.6445 63.3667 65.7018 63.3423 65.7543 63.3179C65.6811 63.053 65.6042 62.7307 65.5297 62.373C65.4773 62.3938 65.4236 62.4182 65.3711 62.4377C65.4407 62.804 65.5176 63.1262 65.5908 63.3911H65.592Z" fill="#E2E8F2"/>
<path d="M65.9367 63.9228C66.4616 63.6787 66.6704 63.3979 66.8657 63.1526C66.8254 63.0549 66.7717 62.8914 66.7192 62.668C66.4751 62.9048 66.1894 63.1245 65.75 63.3162C65.8233 63.5847 65.8879 63.7886 65.938 63.9228H65.9367Z" fill="#D9E1EE"/>
<path d="M65.7481 63.322C66.1876 63.1267 66.4732 62.907 66.7173 62.6738C66.6599 62.4541 66.5989 62.177 66.5342 61.8633C66.2412 62.0879 65.8738 62.2344 65.5234 62.376C65.5967 62.7349 65.6784 63.0559 65.7481 63.3208V63.322Z" fill="#E1E7F2"/>
<path d="M66.8687 63.1548C66.9627 63.0364 67.0566 62.9228 67.1787 62.8289C67.1177 62.6165 67.0481 62.1318 66.9419 61.4922C66.8113 61.574 66.6977 61.7363 66.5391 61.8584C66.6733 62.4895 66.7832 62.9619 66.8687 63.1536V63.1548Z" fill="#D5DDEC"/>
<path d="M67.1755 62.8284C67.1475 62.7222 67.1145 62.5513 67.0742 62.323C67.1682 62.2583 67.2695 62.1313 67.3721 61.9727C67.4172 62.1851 67.4538 62.356 67.4856 62.4817C67.3793 62.6282 67.2732 62.7502 67.1755 62.8284Z" fill="#CED8E9"/>
<path d="M67.4846 62.4822C67.4516 62.3564 67.4113 62.1843 67.3711 61.9731C67.4723 61.8181 67.5712 61.6313 67.664 61.4434C67.7092 61.6387 67.7495 61.8267 67.7897 61.9975C67.6921 62.1684 67.5896 62.3357 67.4846 62.4822Z" fill="#C0CDE3"/>
<path d="M67.0758 62.3196C67.0392 62.0913 66.9939 61.8105 66.9414 61.4883C67.0305 61.4309 67.1332 61.3333 67.2344 61.2148C67.2833 61.5042 67.3284 61.7568 67.3724 61.968C67.271 62.1267 67.1685 62.2537 67.0745 62.3184L67.0758 62.3196Z" fill="#C9D4E7"/>
<path d="M67.3724 61.9726C67.3271 61.7602 67.2833 61.5088 67.2344 61.2195C67.3357 61.1011 67.4419 60.9583 67.5396 60.8203C67.5799 61.04 67.6214 61.2476 67.6653 61.4478C67.5714 61.6309 67.47 61.8188 67.3724 61.9726Z" fill="#BAC8E0"/>
<path d="M67.7898 61.9988C67.7532 61.8279 67.7081 61.6399 67.6641 61.4446C67.7581 61.2566 67.8472 61.0698 67.9204 60.9062C67.9607 61.0857 68.0022 61.281 68.0462 61.5007C67.9729 61.6558 67.8874 61.8267 67.7898 61.9976V61.9988Z" fill="#A8BAD8"/>
<path d="M68.0476 61.4998C68.0025 61.28 67.9621 61.0847 67.9219 60.9053C67.9951 60.7466 68.0599 60.6123 68.105 60.5391C68.138 60.6941 68.1746 60.8809 68.2185 61.1213C68.1819 61.2153 68.1209 61.3496 68.0476 61.4998Z" fill="#88A3C9"/>
<path d="M67.6648 61.4443C67.6197 61.249 67.5794 61.0366 67.5391 60.8169C67.6404 60.6741 67.7344 60.5361 67.8162 60.4141C67.8443 60.5642 67.8809 60.7278 67.9224 60.9072C67.8492 61.0696 67.7601 61.2576 67.6661 61.4455L67.6648 61.4443Z" fill="#A3B6D5"/>
<path d="M67.9227 60.905C67.8824 60.7256 67.8458 60.5632 67.8164 60.4119C67.8983 60.2935 67.9715 60.1921 68.0203 60.1348C68.0484 60.2532 68.0728 60.3789 68.1058 60.5339C68.0607 60.6157 67.9995 60.7463 67.9227 60.905Z" fill="#86A1C7"/>
<path d="M62.4788 61.5862C62.1736 60.9746 61.4973 59.7087 61.0078 58.9629C61.4314 59.4268 62.2506 60.0103 63.0122 60.4741C63.2564 60.9551 63.5176 61.7168 63.7411 62.4053C63.3138 62.2307 62.8487 61.9536 62.4788 61.5862Z" fill="white"/>
<path d="M63.7406 62.4055C64.1678 62.5801 64.5633 62.6582 64.7878 62.6179C64.7183 62.2346 64.6938 61.9453 64.6902 61.7305C64.4704 61.7585 63.9492 61.6169 63.3828 61.3594C63.5086 61.7012 63.6318 62.0637 63.7417 62.4067L63.7406 62.4055Z" fill="#FDFDFE"/>
<path d="M63.3868 61.3621C63.9531 61.6184 64.4744 61.7612 64.6941 61.7331C64.6904 61.5171 64.7026 61.3706 64.7026 61.2607C64.4903 61.2766 63.7822 60.9385 63.0156 60.4746C63.134 60.7151 63.2598 61.0288 63.3868 61.3621Z" fill="white"/>
<path d="M64.7918 62.6196C64.8931 62.6038 65.0774 62.5549 65.2727 62.4768C65.2202 62.102 65.2202 61.8164 65.2324 61.6016C65.0249 61.6748 64.8088 61.72 64.6953 61.7322C64.6991 61.9482 64.7198 62.2327 64.7931 62.6196H64.7918Z" fill="#F7F8FC"/>
<path d="M64.6933 61.7319C64.8068 61.7197 65.023 61.6746 65.2305 61.6013C65.2426 61.3853 65.2707 61.2351 65.2878 61.1289C65.0681 61.1985 64.824 61.2473 64.7006 61.2595C64.7006 61.3657 64.6885 61.5159 64.6921 61.7319H64.6933Z" fill="#FEFFFF"/>
<path d="M65.2751 62.4783C65.3081 62.4661 65.3362 62.4539 65.3691 62.4417C65.3204 62.0669 65.3204 61.7861 65.3361 61.5664C65.3032 61.5786 65.2666 61.5908 65.2349 61.603C65.219 61.8191 65.2226 62.1035 65.2751 62.4783Z" fill="#F1F3F9"/>
<path d="M65.2278 61.6028C65.2608 61.5906 65.2974 61.5784 65.3292 61.5662C65.3451 61.3501 65.3779 61.2 65.3938 61.0938C65.3572 61.106 65.3206 61.1182 65.2839 61.1304C65.2718 61.2366 65.2437 61.3867 65.2266 61.6028H65.2278Z" fill="#FBFCFD"/>
<path d="M65.362 62.4382C65.4474 62.4016 65.5365 62.365 65.6269 62.332C65.5865 61.9658 65.5903 61.6838 65.6146 61.4727C65.5378 61.4934 65.4401 61.5251 65.3339 61.5666C65.318 61.7827 65.318 62.0671 65.362 62.4382Z" fill="#F0F3F9"/>
<path d="M65.3359 61.5657C65.4421 61.5254 65.5398 61.4924 65.6167 61.4717C65.6374 61.2593 65.6777 61.1091 65.6984 61.0078C65.6374 61.0164 65.5276 61.053 65.4006 61.0933C65.3847 61.1995 65.3518 61.3496 65.3359 61.5657Z" fill="#FAFBFD"/>
<path d="M65.6294 62.3298C65.7881 62.2651 65.9516 62.1956 66.1055 62.1174C66.053 61.7512 66.0602 61.4741 66.0847 61.2617C65.9504 61.3472 65.7954 61.4204 65.616 61.4656C65.5915 61.6816 65.5879 61.9624 65.6281 62.3286L65.6294 62.3298Z" fill="#EDF0F7"/>
<path d="M65.6172 61.4712C65.7966 61.426 65.9517 61.3528 66.0859 61.2673C66.1103 61.0549 66.1469 60.9048 66.1554 60.7949C66.0419 60.8962 65.9028 60.9817 65.6989 61.0073C65.6746 61.1086 65.6379 61.2563 65.6172 61.4712Z" fill="#F7F8FC"/>
<path d="M66.1053 62.1196C66.2603 62.0427 66.4068 61.9573 66.5374 61.8547C66.4726 61.4922 66.4605 61.1992 66.4605 60.9746C66.3384 61.0759 66.22 61.1785 66.082 61.2639C66.0613 61.48 66.054 61.7571 66.1065 62.1196H66.1053Z" fill="#E3E9F3"/>
<path d="M66.0859 61.2632C66.2202 61.1777 66.3423 61.0764 66.4643 60.9739C66.4643 60.7456 66.4802 60.5833 66.4679 60.4648C66.3582 60.5662 66.2678 60.6895 66.1506 60.7908C66.1469 60.9043 66.1103 61.052 66.0859 61.2632Z" fill="#EEF1F7"/>
<path d="M66.536 61.8579C66.691 61.7358 66.8094 61.5723 66.9389 61.4917C66.8864 61.1621 66.8815 60.8972 66.8936 60.6934C66.7264 60.7422 66.5958 60.8606 66.4615 60.9741C66.4579 61.2024 66.4701 61.4917 66.5348 61.8579H66.536Z" fill="#D8DFEE"/>
<path d="M66.4609 60.9744C66.5988 60.8609 66.7258 60.7376 66.8931 60.6936C66.9052 60.4898 66.9261 60.3469 66.9211 60.2578C66.7173 60.2737 66.5829 60.3591 66.4646 60.4702C66.4768 60.5838 66.4646 60.751 66.4609 60.9756V60.9744Z" fill="#E1E7F2"/>
<path d="M66.9413 61.4924C66.8888 61.1628 66.884 60.8979 66.8962 60.6941C66.9853 60.6611 67.0793 60.6001 67.177 60.5195C67.177 60.6941 67.1855 60.9187 67.2343 61.2202C67.133 61.3386 67.0305 61.4363 66.9413 61.4937V61.4924Z" fill="#C5D1E5"/>
<path d="M67.2332 61.2202C67.1844 60.9224 67.1758 60.6953 67.1758 60.5195C67.2735 60.4377 67.3674 60.3401 67.4614 60.2461C67.4773 60.4084 67.498 60.5928 67.5384 60.821C67.4407 60.959 67.3345 61.0981 67.2332 61.2202Z" fill="#B5C5DE"/>
<path d="M66.8945 60.6953C66.9068 60.4915 66.9275 60.3486 66.9227 60.2595C67.0118 60.251 67.0972 60.1948 67.1753 60.1094C67.1875 60.2156 67.1753 60.3413 67.1753 60.5208C67.0777 60.6025 66.9837 60.6636 66.8945 60.6953Z" fill="#CDD8E9"/>
<path d="M67.1758 60.5173C67.1758 60.3428 67.188 60.2122 67.1758 60.106C67.2527 60.0205 67.3308 59.9143 67.4004 59.8008C67.4285 59.9387 67.4455 60.0779 67.4614 60.2402C67.3674 60.3379 67.2698 60.4355 67.1758 60.5173Z" fill="#BDCBE2"/>
<path d="M67.5379 60.8169C67.4976 60.5886 67.4768 60.4055 67.4609 60.2419C67.5549 60.1443 67.6441 60.0466 67.7222 59.9648C67.7552 60.115 67.7833 60.2578 67.8162 60.4165C67.7344 60.5349 67.6417 60.6777 67.5391 60.8157L67.5379 60.8169Z" fill="#A0B4D4"/>
<path d="M67.8167 60.417C67.7838 60.262 67.7557 60.1155 67.7227 59.9653C67.8045 59.8835 67.8729 59.8152 67.9303 59.7773C67.9632 59.9031 67.9913 60.0178 68.0194 60.1399C67.9705 60.1973 67.9009 60.2949 67.8155 60.417H67.8167Z" fill="#86A1C7"/>
<path d="M67.4594 60.2417C67.4436 60.0793 67.4266 59.9402 67.3984 59.8022C67.4717 59.6924 67.5364 59.5776 67.6059 59.4922C67.6512 59.6631 67.6878 59.8145 67.7244 59.9646C67.6426 60.0464 67.5534 60.144 67.4594 60.2417Z" fill="#A5B8D6"/>
<path d="M67.7199 59.9636C67.6871 59.8135 67.6504 59.6621 67.6016 59.4912C67.6663 59.4021 67.7322 59.3362 67.7969 59.3203C67.8494 59.5034 67.8909 59.6499 67.9276 59.7769C67.8702 59.8135 67.8018 59.8831 67.7199 59.9636Z" fill="#89A3C9"/>
<path d="M61.0107 58.9661C61.8578 59.895 64.2822 61.2964 64.7008 61.2598C64.7008 61.178 64.6849 60.9705 64.6521 60.6775C64.0576 60.5151 61.8896 59.2676 61.0387 58.4375C60.9899 58.7109 60.9777 58.9136 61.0107 58.9673V58.9661Z" fill="white"/>
<path d="M61.0391 58.4365C61.8899 59.2678 64.0529 60.5142 64.6523 60.6765C64.5303 59.4509 64.2007 56.7288 64.1226 55.4629C63.1569 55.4629 62.4477 55.8413 61.9473 56.4126C61.4712 56.9668 61.1819 57.6956 61.0391 58.4377V58.4365Z" fill="white"/>
<path d="M64.6997 61.2604C64.8255 61.2482 65.0658 61.1994 65.2868 61.1298C65.238 60.3351 64.7571 57.0722 64.4556 55.4719C64.325 55.4633 64.2358 55.4682 64.1211 55.4682C64.2151 57.0368 64.6997 60.8417 64.6997 61.2604Z" fill="white"/>
<path d="M65.2872 61.1306C65.3115 61.1221 65.336 61.1147 65.3568 61.1062C65.2957 60.2798 64.811 57.073 64.4852 55.4727H64.457C64.7587 57.073 65.2395 60.3408 65.2884 61.1306H65.2872Z" fill="white"/>
<path d="M65.3616 61.1096C65.5044 61.0608 65.6301 61.0205 65.6997 61.0083C65.6594 60.4907 65.5166 59.5129 65.3286 58.4668C65.2591 58.4668 65.1284 58.5608 65.0234 58.5803C65.1943 59.6887 65.3286 60.6946 65.3616 61.1096Z" fill="white"/>
<path d="M65.0229 58.5806C65.1292 58.5598 65.2597 58.467 65.328 58.467C65.14 57.4197 64.913 56.304 64.6884 55.4971C64.6238 55.4849 64.5542 55.4763 64.4883 55.4727C64.6505 56.2747 64.8508 57.4771 65.0217 58.5806H65.0229Z" fill="white"/>
<path d="M65.6928 61.0076C66.0028 60.9673 66.1652 60.7915 66.3202 60.6206C66.2995 60.2495 66.2592 59.8467 66.1982 59.4316C66.0273 59.6685 65.8478 59.9077 65.5586 59.937C65.6281 60.3765 65.6721 60.7476 65.6928 61.0088V61.0076Z" fill="#FDFDFE"/>
<path d="M65.5638 59.9368C65.853 59.9087 66.0276 59.6682 66.2034 59.4314C66.1424 59.0163 66.0655 58.5842 65.9715 58.1484C65.7713 58.2986 65.5686 58.4621 65.3281 58.4658C65.4172 58.9907 65.5027 59.4961 65.565 59.9368H65.5638Z" fill="white"/>
<path d="M65.3274 58.4648C65.5679 58.4612 65.7718 58.2976 65.9708 58.1475C65.7792 57.2795 65.5105 56.4043 65.1724 55.634C65.0174 55.573 64.8587 55.5242 64.6914 55.4961C64.9112 56.303 65.1394 57.4187 65.3274 58.4661V58.4648Z" fill="white"/>
<path d="M66.3201 60.6208C66.397 60.5354 66.4751 60.4499 66.5691 60.384C66.5483 59.936 66.5166 59.5161 66.4677 59.1133C66.3701 59.1987 66.2846 59.3171 66.1992 59.4355C66.2602 59.8469 66.3005 60.2498 66.3212 60.6208H66.3201Z" fill="#F1F4F9"/>
<path d="M66.2019 59.4304C66.2874 59.312 66.3728 59.1985 66.4704 59.1082C66.4216 58.7053 66.3569 58.322 66.2666 57.9473C66.1652 57.9961 66.0664 58.073 65.9688 58.1475C66.0627 58.5833 66.1396 59.0154 66.2006 59.4304H66.2019Z" fill="#F8FAFC"/>
<path d="M66.574 60.3838C66.668 60.3191 66.7779 60.2703 66.9244 60.2581C66.9037 59.7734 66.867 59.3499 66.8109 58.9629C66.6765 58.9666 66.5667 59.0239 66.4727 59.113C66.5215 59.5122 66.5497 59.9321 66.574 60.3838Z" fill="#E6EBF4"/>
<path d="M66.4705 59.1089C66.5681 59.0235 66.678 58.9624 66.8086 58.9588C66.7512 58.5718 66.678 58.2215 66.5717 57.8833C66.4655 57.8675 66.3642 57.8955 66.2617 57.948C66.3507 58.3228 66.4203 58.7097 66.4692 59.1089H66.4705Z" fill="#EFF3F9"/>
<path d="M65.9663 58.1475C66.1665 57.9973 66.357 57.8545 66.573 57.8826C66.3691 57.21 66.0602 56.5947 65.6037 55.8574C65.4658 55.772 65.3181 55.6987 65.168 55.6328C65.5061 56.4067 65.7746 57.2832 65.9663 58.1462V58.1475Z" fill="#F9FAFC"/>
<path d="M66.9249 60.2573C66.8845 59.2917 66.782 58.5581 66.5781 57.8867C66.6672 57.9111 66.7405 57.9197 66.8064 57.9233C67.0103 58.5471 67.1201 59.2185 67.1813 60.1072C67.0958 60.1926 67.014 60.25 66.9249 60.2573Z" fill="#D5DEED"/>
<path d="M67.1755 60.1057C67.1182 59.2183 67.0083 58.542 66.8008 57.9219C66.8655 57.9255 66.9192 57.9219 66.9717 57.9219C67.1755 58.4846 67.3098 59.0864 67.3989 59.8042C67.3294 59.9104 67.2524 60.0203 67.1743 60.1057H67.1755Z" fill="#C5D1E5"/>
<path d="M66.5786 57.8865C66.3747 57.2139 66.066 56.5986 65.6094 55.8613C65.6985 55.9138 65.7889 55.9797 65.878 56.0493C66.3052 56.7292 66.603 57.2993 66.8069 57.9231C66.7422 57.9194 66.669 57.9109 66.5786 57.8865Z" fill="#E9EDF5"/>
<path d="M66.8012 57.9236C66.866 57.9272 66.9196 57.9236 66.9721 57.9236C66.8708 57.6428 66.7525 57.3694 66.6132 57.1008C66.5522 57.0679 66.4912 57.0398 66.418 57.0117C66.5766 57.3132 66.6987 57.6111 66.8012 57.9248V57.9236Z" fill="#DBE2EF"/>
<path d="M66.4206 57.0088C66.4903 57.0418 66.5549 57.0662 66.6159 57.0979C66.478 56.8293 66.3181 56.5559 66.1399 56.2788C66.0544 56.197 65.9653 56.1201 65.875 56.0469C66.0874 56.3887 66.2656 56.7024 66.4206 57.0088Z" fill="#E1E7F2"/>
<path d="M67.3999 59.8022C67.3108 59.0857 67.1753 58.4827 66.9727 57.9199C67.0252 57.9199 67.074 57.9199 67.1277 57.9321C67.3279 58.4253 67.4817 58.9465 67.6038 59.4885C67.539 59.5825 67.4732 59.6924 67.3999 59.8022Z" fill="#AEBFDB"/>
<path d="M67.6072 59.4917C67.6719 59.4026 67.7378 59.3367 67.8026 59.3208C67.7329 59.0889 67.6597 58.8643 67.5779 58.6445C67.5132 58.6445 67.4522 58.6604 67.3984 58.6934C67.4754 58.9546 67.5449 59.2183 67.6061 59.4917H67.6072Z" fill="#90A8CC"/>
<path d="M67.3935 58.6934C67.4509 58.6653 67.507 58.6445 67.573 58.6445C67.4911 58.4248 67.402 58.2124 67.308 58.0085C67.2385 57.9683 67.1824 57.9438 67.125 57.9316C67.2263 58.1807 67.3166 58.4321 67.3935 58.6934Z" fill="#9DB1D2"/>
<path d="M66.9751 57.9197C67.0813 57.9197 67.1753 57.9233 67.3133 58.0088C67.2156 57.8013 67.1131 57.6011 66.9996 57.4058C66.8567 57.2434 66.7432 57.1616 66.6211 57.0957C66.7555 57.3691 66.8738 57.6377 66.9751 57.9185V57.9197Z" fill="#C4D0E5"/>
<path d="M66.6176 57.0964C66.7397 57.1611 66.8545 57.2429 66.9961 57.4065C66.8826 57.2112 66.7592 57.0195 66.625 56.8315C66.4785 56.6314 66.3112 56.4409 66.1367 56.2773C66.3198 56.5544 66.4785 56.8267 66.6176 57.0964Z" fill="#CFD8E9"/>
<path d="M60.2511 61.3552C59.1904 62.3989 58.215 62.9299 57.684 63.2546C57.4619 63.4084 57.3594 63.511 57.3594 63.7856C57.3594 63.854 57.3764 63.8882 57.4277 63.8882C57.5302 63.8882 57.684 63.7344 57.9929 63.7344C58.7802 63.7344 59.6017 64.6414 60.56 64.6414C61.7234 64.6414 63.5044 63.2375 63.9486 62.9128L64.017 63.0154C63.3494 63.7515 60.8164 65.7876 59.841 65.7876C59.2759 65.7876 58.9682 65.6337 58.9682 65.4629C58.9682 65.2065 59.3784 64.8977 59.6017 64.7268C59.5846 64.7097 59.448 64.6584 59.3966 64.6243C59.2257 64.7439 58.5751 65.1895 58.5751 65.5825C58.5751 66.0622 59.2087 66.2161 59.7897 66.2161C60.3036 66.2161 60.7992 65.9426 61.091 65.7876C61.7759 65.3774 63.4873 64.1274 64.0354 63.6477C64.5493 63.2192 64.7201 62.8262 64.7201 62.3464C64.7201 61.7129 63.5739 61.5249 63.4701 59.9844C63.4189 58.9749 63.3164 58.666 63.1967 58.666C62.9404 58.666 62.717 59.2996 61.9467 59.2996C61.3815 59.2996 61.5182 58.5293 61.3815 58.5293C61.1594 58.5977 61.1594 60.4629 60.2524 61.3528" fill="url(#paint0_linear_16833_8360)"/>
<path d="M65.6289 59.1821C65.3214 59.1821 65.2188 58.96 65.2188 58.6853C65.2188 58.3093 65.3555 57.9492 65.6289 57.9492C65.8511 57.9492 66.0049 58.2568 66.022 58.7024C66.022 59.01 65.8511 59.1821 65.6289 59.1821Z" fill="#0D4D84"/>
</g>
</g>
</g>
<defs>
<filter id="filter0_d_16833_8360" x="0" y="0" width="126" height="126" filterUnits="userSpaceOnUse" color-interpolation-filters="sRGB">
<feFlood flood-opacity="0" result="BackgroundImageFix"/>
<feColorMatrix in="SourceAlpha" type="matrix" values="0 0 0 0 0 0 0 0 0 0 0 0 0 0 0 0 0 0 127 0" result="hardAlpha"/>
<feOffset/>
<feGaussianBlur stdDeviation="6.5"/>
<feComposite in2="hardAlpha" operator="out"/>
<feColorMatrix type="matrix" values="0 0 0 0 0.831731 0 0 0 0 0.831731 0 0 0 0 0.831731 0 0 0 0.25 0"/>
<feBlend mode="normal" in2="BackgroundImageFix" result="effect1_dropShadow_16833_8360"/>
<feBlend mode="normal" in="SourceGraphic" in2="effect1_dropShadow_16833_8360" result="shape"/>
</filter>
<linearGradient id="paint0_linear_16833_8360" x1="59.2161" y1="60.6993" x2="61.6436" y2="62.583" gradientUnits="userSpaceOnUse">
<stop stop-color="#FBCC93"/>
<stop offset="1" stop-color="#F68B1B"/>
</linearGradient>
<clipPath id="clip0_16833_8360">
<rect width="62.5" height="20" fill="white" transform="translate(32 53)"/>
</clipPath>
</defs>
</svg>
