<svg width="126" height="126" viewBox="0 0 126 126" fill="none" xmlns="http://www.w3.org/2000/svg">
<g filter="url(#filter0_d_16812_8450)">
<rect x="13" y="13" width="100" height="100" rx="50" fill="white" shape-rendering="crispEdges"/>
<g clip-path="url(#clip0_16812_8450)">
<mask id="mask0_16812_8450" style="mask-type:luminance" maskUnits="userSpaceOnUse" x="38" y="46" width="50" height="34">
<path d="M88 46.8516H38V79.0143H88V46.8516Z" fill="white"/>
</mask>
<g mask="url(#mask0_16812_8450)">
<path d="M70.1176 71.4478C70.1208 71.4733 70.1144 71.4988 70.1048 71.5244C70.0921 71.5466 70.0729 71.5658 70.0537 71.5786C70.0314 71.5946 70.0058 71.601 69.9802 71.601H65.9547C65.9249 71.601 65.895 71.5967 65.8652 71.5882C65.8354 71.5818 65.8067 71.5711 65.779 71.5562C65.7513 71.5434 65.7257 71.5265 65.7023 71.5052C65.6789 71.486 65.6586 71.4637 65.6416 71.4382L53.2454 54.489C53.2294 54.4698 53.2199 54.4443 53.2199 54.4188C53.2167 54.3932 53.2199 54.3677 53.2326 54.3422C53.2454 54.3199 53.2614 54.3007 53.2838 54.288C53.3061 54.272 53.3317 54.2656 53.3572 54.2656H57.3509C57.3807 54.2656 57.4105 54.2699 57.4403 54.2784C57.4701 54.2848 57.4989 54.2954 57.5266 54.3103C57.5543 54.3231 57.5798 54.3401 57.6032 54.3614C57.6267 54.3805 57.6469 54.4028 57.664 54.4284L70.0921 71.3776C70.108 71.3967 70.1176 71.4222 70.1176 71.4478Z" fill="#0769AF"/>
<path d="M65.7044 54.3582C65.7278 54.339 65.7534 54.322 65.7811 54.3071C65.8087 54.2943 65.8375 54.2837 65.8673 54.2752C65.897 54.2688 65.9269 54.2656 65.9567 54.2656H69.9823C70.0079 54.2656 70.0335 54.272 70.0558 54.2848C70.0782 54.2975 70.0942 54.3199 70.1068 54.3422C70.1196 54.3645 70.1229 54.3901 70.1229 54.4188C70.1196 54.4443 70.1101 54.4666 70.0942 54.489L57.6628 71.4382C57.6437 71.4616 57.6224 71.4839 57.599 71.5052C57.5755 71.5244 57.551 71.5414 57.5255 71.5562C57.4978 71.569 57.4689 71.5796 57.4391 71.5882C57.4093 71.5945 57.3784 71.5977 57.3465 71.5977H53.3592C53.3337 71.5977 53.3082 71.5913 53.2859 71.5786C53.2635 71.5626 53.2474 71.5435 53.2346 71.5212C53.2219 71.4988 53.2188 71.4733 53.2188 71.4446C53.222 71.419 53.2315 71.3968 53.2475 71.3744L65.6404 54.4252C65.6596 54.4018 65.681 54.3794 65.7044 54.3582Z" fill="#28A6DE"/>
<path fill-rule="evenodd" clip-rule="evenodd" d="M85.4441 56.8023C87.0703 58.4295 87.984 60.6343 87.984 62.9317C87.984 65.229 87.0703 67.4338 85.4441 69.0611C83.8179 70.6852 81.6102 71.5977 79.3099 71.5977H75.2748V78.6652C75.2748 78.713 75.2652 78.7578 75.246 78.7992C75.23 78.8407 75.2045 78.879 75.1725 78.9109C75.1406 78.9428 75.1022 78.9683 75.0575 78.9875C75.016 79.0035 74.9712 79.0131 74.9265 79.0131H72.1374C72.0927 79.0131 72.0479 79.0035 72.0064 78.9875C71.9649 78.9683 71.9265 78.9428 71.8914 78.9109C71.8594 78.879 71.8339 78.8407 71.8179 78.7992C71.7987 78.7578 71.7891 78.7098 71.7891 78.6652V54.6134C71.7891 54.5688 71.7987 54.5209 71.8179 54.4794C71.8339 54.4379 71.8594 54.3996 71.8914 54.3677C71.9265 54.3358 71.9649 54.3103 72.0064 54.2912C72.0479 54.2752 72.0927 54.2656 72.1374 54.2656H79.3099C81.6102 54.2656 83.8179 55.1782 85.4441 56.8023ZM82.9808 66.5978C83.9553 65.6279 84.5016 64.3069 84.5016 62.9317C84.5016 61.5564 83.9553 60.2355 82.9808 59.2655C82.0064 58.2924 80.6869 57.7467 79.3099 57.7467H75.2748V68.1166H79.3099C80.6869 68.1166 82.0064 67.571 82.9808 66.5978Z" fill="#0769AF"/>
<path fill-rule="evenodd" clip-rule="evenodd" d="M53.5616 66.248C53.1271 67.2978 52.4881 68.255 51.6798 69.0591C50.8747 69.8631 49.9194 70.5013 48.8683 70.9384C47.8172 71.3724 46.6894 71.599 45.5488 71.599H38.3795C38.3348 71.599 38.2868 71.5894 38.2453 71.5734C38.2038 71.5542 38.1654 71.5288 38.1335 71.4968C38.1015 71.465 38.076 71.4266 38.0568 71.3852C38.0408 71.3437 38.0312 71.2958 38.0312 71.2511V47.1994C38.0312 47.1547 38.0408 47.1068 38.0568 47.0653C38.076 47.0239 38.1015 46.9856 38.1335 46.9537C38.1654 46.9218 38.2038 46.8962 38.2453 46.8771C38.2868 46.8611 38.3348 46.8516 38.3795 46.8516H41.1718C41.2166 46.8516 41.2613 46.8611 41.3028 46.8803C41.3444 46.8962 41.3827 46.9218 41.4146 46.9537C41.4466 46.9856 41.4721 47.0239 41.4881 47.0653C41.5041 47.1068 41.5137 47.1515 41.5137 47.1994V54.2668H45.5488C46.6894 54.2668 47.8172 54.4934 48.8683 54.9273C49.9194 55.3645 50.8747 56.0026 51.6798 56.8067C52.4881 57.6108 53.1271 58.5679 53.5616 59.6177C53.9993 60.6675 54.223 61.7938 54.2261 62.9329C54.223 64.072 53.9993 65.1983 53.5616 66.248ZM50.3444 60.9482C50.0824 60.3197 49.7022 59.7485 49.2198 59.2667C48.7373 58.7849 48.1654 58.4052 47.536 58.1436C46.9067 57.8819 46.2325 57.7479 45.5488 57.7479H41.5137V68.1178H45.5488C46.2325 68.1178 46.9067 67.9838 47.536 67.7222C48.1654 67.4606 48.7373 67.0809 49.2198 66.5991C49.7022 66.1172 50.0824 65.5462 50.3444 64.9176C50.6063 64.289 50.7405 63.6125 50.7405 62.9329C50.7405 62.2532 50.6063 61.5768 50.3444 60.9482Z" fill="#0769AF"/>
</g>
</g>
</g>
<defs>
<filter id="filter0_d_16812_8450" x="0" y="0" width="126" height="126" filterUnits="userSpaceOnUse" color-interpolation-filters="sRGB">
<feFlood flood-opacity="0" result="BackgroundImageFix"/>
<feColorMatrix in="SourceAlpha" type="matrix" values="0 0 0 0 0 0 0 0 0 0 0 0 0 0 0 0 0 0 127 0" result="hardAlpha"/>
<feOffset/>
<feGaussianBlur stdDeviation="6.5"/>
<feComposite in2="hardAlpha" operator="out"/>
<feColorMatrix type="matrix" values="0 0 0 0 0.831731 0 0 0 0 0.831731 0 0 0 0 0.831731 0 0 0 0.25 0"/>
<feBlend mode="normal" in2="BackgroundImageFix" result="effect1_dropShadow_16812_8450"/>
<feBlend mode="normal" in="SourceGraphic" in2="effect1_dropShadow_16812_8450" result="shape"/>
</filter>
<clipPath id="clip0_16812_8450">
<rect width="50" height="32.3" fill="white" transform="translate(38 46.8516)"/>
</clipPath>
</defs>
</svg>
