<svg width="75" height="25" viewBox="0 0 75 25" fill="none" xmlns="http://www.w3.org/2000/svg">
<mask id="mask0_16833_12177" style="mask-type:luminance" maskUnits="userSpaceOnUse" x="0" y="0" width="75" height="25">
<path d="M75 0.5625H0.769531V24.1665H75V0.5625Z" fill="white"/>
</mask>
<g mask="url(#mask0_16833_12177)">
<path fill-rule="evenodd" clip-rule="evenodd" d="M35.4278 5.85107H35.3736L33.2121 11.5704H37.5625L35.4278 5.85107ZM37.914 12.3927H32.9148L31.8608 15.0987C31.347 16.4169 31.077 17.4293 32.6989 17.4525V17.8529H28.6992V17.4525C30.1584 17.264 30.5096 16.5811 30.9955 15.3348L35.2656 4.22829H36.8601L41.3462 15.8292C41.8052 17.0756 42.1833 17.4525 43.5613 17.4525V17.8529H38.1035V17.4525C39.1574 17.4525 39.6702 17.052 39.3195 16.1339L37.914 12.3927ZM48.0173 16.276C48.0173 17.1936 48.3415 17.4525 49.6111 17.4525V17.8529H44.5581V17.4525C46.0173 17.4525 46.1795 17.1237 46.1795 15.8524V11.3116C46.1795 10.0876 45.8288 9.94593 44.2074 9.94593V9.54635L47.5576 9.28797H48.0167V11.1C49.8001 9.75794 50.6382 9.28756 51.2873 9.28756C51.8274 9.28756 52.557 9.56995 53.0434 9.94635L52.3137 11.4292C51.5304 11.0524 50.6924 10.7 50.0434 10.7C49.4227 10.7 48.8816 10.9824 48.0167 11.7107V16.2764M61.9325 12.2288H61.4724C61.0671 10.7223 59.8511 9.75752 58.2562 9.75752C56.3648 9.75752 55.0408 11.17 55.0408 13.2163C55.0408 15.4991 56.6899 17.4057 58.6356 17.4057C59.7979 17.4057 61.2024 16.8635 62.2015 15.6648V16.276C61.175 17.4992 59.7163 18.1108 57.9866 18.1108C55.1492 18.1108 53.1767 16.3932 53.1767 13.8996C53.1767 11.3343 55.3923 9.28756 58.1218 9.28756C59.5541 9.28756 60.338 9.75752 60.8239 9.75752C61.0667 9.75752 61.3103 9.59398 61.4724 9.28756H61.9325V12.2288ZM72.9005 15.8524C72.9005 17.1237 73.1705 17.4525 74.4412 17.4525V17.8529H69.4693V17.4525C70.7655 17.4525 71.0628 17.1936 71.0628 16.112V11.9936C71.0628 10.8876 70.3063 10.1811 69.145 10.1811C68.0638 10.1811 67.2805 10.6279 66.3614 11.7584V16.3224C66.3614 17.1936 66.7662 17.4525 67.9559 17.4525V17.8529H62.8213V17.4525C64.2541 17.4293 64.5237 17.1936 64.5237 15.8524V5.00427C64.5237 3.92185 64.172 3.75748 62.8213 3.75748V3.35789L65.9013 3.07422H66.3609V10.9579C67.577 9.73349 68.4691 9.28756 69.712 9.28756C71.3065 9.28756 72.9009 10.2043 72.9009 12.182L72.9005 15.8524Z" fill="#0853A6"/>
<path fill-rule="evenodd" clip-rule="evenodd" d="M11.7771 14.899L0.769531 17.7399L4.96942 12.7902L4.90251 15.0818L11.7766 14.8986M14.7351 14.7552L10.2847 24.1605L8.60963 18.139L10.568 19.6299L14.7351 14.7552ZM15.9307 12.8012L21.2864 21.8229L14.9954 19.1667L17.5275 18.7595L15.9307 12.8012ZM15.0736 10.2317L26.3547 12.0033L20.1379 14.8016L21.3318 12.767L15.0736 10.2317ZM13.0239 9.59187L21.7938 3.01689L20.2066 9.05782L19.2252 6.93979L13.0239 9.59187ZM10.6861 10.7611L10.1914 0.5625L14.5964 5.36591L12.1112 4.76823L10.6861 10.7611ZM10.4195 13.1443L1.07964 7.23148L8.04363 7.08521L5.98618 8.46182L10.4195 13.1443Z" fill="#0853A6"/>
</g>
</svg>
