<svg width="126" height="126" viewBox="0 0 126 126" fill="none" xmlns="http://www.w3.org/2000/svg">
<g filter="url(#filter0_d_16812_8297)">
<rect x="13" y="13" width="100" height="100" rx="50" fill="white" shape-rendering="crispEdges"/>
<g clip-path="url(#clip0_16812_8297)">
<mask id="mask0_16812_8297" style="mask-type:luminance" maskUnits="userSpaceOnUse" x="38" y="39" width="50" height="48">
<path d="M88 39.8984H38V86.0667H88V39.8984Z" fill="white"/>
</mask>
<g mask="url(#mask0_16812_8297)">
<path fill-rule="evenodd" clip-rule="evenodd" d="M86.6526 86.0542C85.9146 86.0542 85.321 85.4606 85.321 84.7225C85.321 83.9876 85.9146 83.3909 86.6526 83.3909C87.3876 83.3909 87.9843 83.9876 87.9843 84.7225C87.9843 85.4606 87.3876 86.0542 86.6526 86.0542ZM87.7801 84.6723C87.7801 84.0473 87.2745 83.5448 86.6526 83.5448C86.0276 83.5448 85.5251 84.0473 85.5251 84.6723C85.5251 85.2941 86.0276 85.7998 86.6526 85.7998C87.2745 85.7998 87.7801 85.2941 87.7801 84.6723ZM86.3448 85.492H86.1407V83.9562H86.6526C87.0107 83.9562 87.1646 84.1069 87.1646 84.3645C87.1646 84.622 87.0107 84.7225 86.8065 84.7759L87.2651 85.4417H87.0609L86.6526 84.7759H86.3448V85.492ZM86.6024 84.6189C86.8568 84.6189 87.0609 84.6189 87.0609 84.3645C87.0609 84.1572 86.907 84.1069 86.7029 84.1069H86.3448V84.6189H86.6024ZM42.4567 60.134L40.255 61.6698C38.6658 62.7439 37.8995 64.8953 39.3317 66.9461C40.7167 68.9939 42.9686 69.0473 44.608 67.9198L46.8097 66.3808L45.5817 64.5906L43.5339 66.0228C42.7645 66.5881 41.7908 66.2803 41.3292 65.5642C40.8172 64.845 40.8706 63.8714 41.6903 63.3092L43.7381 61.8739L42.4567 60.134ZM75.3869 39.8984C75.233 39.8984 75.0791 40.0021 74.9755 40.0523C74.1055 40.6679 73.4397 41.5881 74.2092 42.6654C75.3335 44.2546 77.6388 41.9996 78.1508 42.769C78.3549 43.0234 78.201 43.3312 77.843 43.5888C77.6891 43.6893 77.4849 43.6893 77.2808 43.639C77.1269 43.5888 76.973 43.4851 76.8693 43.3312L75.3869 44.4085C76.3072 45.7401 77.5352 45.2282 78.6124 44.509C79.6363 43.7929 80.5063 42.7156 79.6866 41.5881C79.1746 40.8721 78.6124 40.7716 77.9466 40.9757C76.6652 41.384 75.9994 41.8457 75.7952 41.5379C75.6413 41.2835 75.6916 41.0259 75.8989 40.8721C76.103 40.7182 76.3072 40.6679 76.4611 40.7182C76.6149 40.7716 76.6652 40.8218 76.7688 40.9757L78.4585 39.8984H84.1935V56.7546H64.2217C61.4045 56.7546 57.309 58.0328 57.309 62.9009C57.309 67.5617 61.5082 68.8431 64.2217 68.8431H84.1432V85.9537H62.2242C50.1388 85.9537 38 77.8601 38 62.9009C38 47.9418 50.5974 39.8984 62.2242 39.8984H75.3869ZM50.1891 64.0284L51.8788 62.8507C51.5207 62.389 51.3166 62.1314 51.0622 61.7734L48.7569 58.4443L47.0672 59.622L48.8072 62.1848C48.8574 62.2351 49.5766 63.0548 48.7569 63.6704C48.245 64.0284 47.7833 63.617 47.4755 63.2087L45.6822 60.5956L43.9925 61.7734L46.0433 64.7445C46.706 65.7181 47.8335 65.872 48.8072 65.2062C49.3693 64.7948 49.6771 64.3362 49.7808 63.617L50.1891 64.0284ZM50.8046 57.0121L49.1652 58.1365C49.5232 58.5981 49.7274 58.8557 49.9849 59.2137L52.2871 62.4926L53.9799 61.3149L52.2368 58.752C52.1866 58.7018 51.4705 57.8821 52.2871 57.2665C52.799 56.9084 53.2607 57.3199 53.5685 57.7282L55.3618 60.3412L57.0515 59.1635L55.3084 56.6007C55.2582 56.5504 54.5421 55.7307 55.3618 55.1151C55.8737 54.7571 56.3354 55.1654 56.6401 55.5768L58.4334 58.1899L60.1231 57.0121L57.9717 54.2451C57.3059 53.2715 56.1815 53.1176 55.2079 53.7834C54.5421 54.2451 54.184 54.9612 54.2343 55.7307C53.6721 55.3193 52.8524 55.4731 52.3405 55.8312C51.6746 56.2929 51.2632 56.9084 51.3668 57.7282L50.8046 57.0121ZM59.1526 51.2238L57.5132 52.3513C57.8712 52.8098 58.0754 53.0674 58.3329 53.4254L60.6382 56.7043L62.3279 55.5265L60.5848 52.9637C60.5345 52.9135 59.8185 52.0938 60.6382 51.4782C61.1501 51.1201 61.6087 51.5316 61.9165 51.9399L63.7098 54.5529L65.3995 53.3752L63.6595 50.8123C63.6062 50.7621 62.8901 49.9424 63.7098 49.3268C64.2217 48.9688 64.6834 49.3802 64.9912 49.7885L66.7814 52.4015L68.4742 51.2238L66.4234 48.2527C65.7575 47.2791 64.6332 47.1252 63.6595 47.791C62.9937 48.2527 62.6357 48.9688 62.6859 49.7383C62.1237 49.3268 61.304 49.4807 60.7921 49.8388C60.1263 50.3004 59.7148 50.916 59.8185 51.7357L59.1526 51.2238ZM70.6225 49.8419L67.5509 45.4355L65.8612 46.563L68.9328 50.9662L70.6225 49.8419ZM67.0389 44.6692L66.2192 43.4914L64.5295 44.6692L65.3492 45.8469L67.0389 44.6692ZM69.8562 43.8494L68.1633 45.0272C68.5245 45.4889 68.7286 45.7464 68.983 46.1045L71.2883 49.3834L72.978 48.2056L71.2381 45.6428C71.1878 45.5925 70.4686 44.7728 71.2883 44.1572C71.8003 43.7992 72.2619 44.2075 72.5697 44.6189L74.3599 47.232L76.0528 46.0542L74.0019 43.08C73.3361 42.1095 72.2117 41.9556 71.2381 42.6214C70.6727 43.0297 70.3681 43.4914 70.2644 44.2075L69.8562 43.8494Z" fill="black"/>
</g>
</g>
</g>
<defs>
<filter id="filter0_d_16812_8297" x="0" y="0" width="126" height="126" filterUnits="userSpaceOnUse" color-interpolation-filters="sRGB">
<feFlood flood-opacity="0" result="BackgroundImageFix"/>
<feColorMatrix in="SourceAlpha" type="matrix" values="0 0 0 0 0 0 0 0 0 0 0 0 0 0 0 0 0 0 127 0" result="hardAlpha"/>
<feOffset/>
<feGaussianBlur stdDeviation="6.5"/>
<feComposite in2="hardAlpha" operator="out"/>
<feColorMatrix type="matrix" values="0 0 0 0 0.831731 0 0 0 0 0.831731 0 0 0 0 0.831731 0 0 0 0.25 0"/>
<feBlend mode="normal" in2="BackgroundImageFix" result="effect1_dropShadow_16812_8297"/>
<feBlend mode="normal" in="SourceGraphic" in2="effect1_dropShadow_16812_8297" result="shape"/>
</filter>
<clipPath id="clip0_16812_8297">
<rect width="50" height="46.2" fill="white" transform="translate(38 39.8984)"/>
</clipPath>
</defs>
</svg>
