<svg width="126" height="126" viewBox="0 0 126 126" fill="none" xmlns="http://www.w3.org/2000/svg">
<g filter="url(#filter0_d_16812_8282)">
<rect x="13" y="13" width="100" height="100" rx="50" fill="white" shape-rendering="crispEdges"/>
<g clip-path="url(#clip0_16812_8282)">
<mask id="mask0_16812_8282" style="mask-type:luminance" maskUnits="userSpaceOnUse" x="32" y="47" width="62" height="32">
<path d="M94 47.9961H32V78.5997H94V47.9961Z" fill="white"/>
</mask>
<g mask="url(#mask0_16812_8282)">
<path d="M74.6471 52.1442V59.8261L72.9278 60.4298V51.5399L67.7695 49.6933V62.2779L66.0671 62.8816V49.0891L63.488 48.1562L60.9088 49.0891V62.8816L59.1894 62.2779V49.6933L54.0483 51.5399V60.4298L52.3288 59.8261V52.1442L50.6094 52.748V61.0699L55.7507 62.8992V52.784L57.47 52.1623V63.5215L62.6283 65.3508V50.3301L63.4885 50.019L64.3482 50.3301V65.3508L69.4895 63.5215V52.1623L71.2089 52.784V62.8992L76.367 61.0699V52.748L74.6471 52.1442Z" fill="#EC1E27"/>
<path d="M32.9317 75.1829H35.9766V74.3413H32.9317V72.5121H37.4815V71.6523H32V78.109H37.6424V77.2858H32.9317V75.1829Z" fill="black"/>
<path d="M57.0408 75.5418C57.0408 76.6941 56.2887 77.4618 55.1774 77.4618C54.1025 77.4618 53.4213 76.6752 53.4213 75.5418V71.6641H52.5078V75.5777C52.5078 77.3335 53.7616 78.3037 55.1773 78.3037C57.2552 78.3037 57.9357 76.8406 57.9357 75.5777V71.6641H57.0403L57.0408 75.5418Z" fill="black"/>
<path d="M63.043 78.109H63.9386V71.6523H63.043V78.109Z" fill="black"/>
<path d="M74.7682 76.7115L70.2904 71.6445H69.3945V78.1012H70.2904V73.0155L74.7865 78.1012H75.6819V71.6445H74.7686L74.7682 76.7115Z" fill="black"/>
<path d="M81.1992 78.109H82.1129V71.6523H81.1992V78.109Z" fill="black"/>
<path d="M90.9213 74.6044L93.5541 71.6406H92.4435L90.3472 73.9643L88.3229 71.6406H87.1228L89.6666 74.6044L86.4961 78.0986H87.6606L90.258 75.2271L92.7482 78.0986H94.0019L90.9213 74.6044Z" fill="black"/>
<path d="M46.9765 74.8779C46.9765 75.7925 46.6718 76.3785 46.1525 76.8902C45.6688 76.3048 45.6688 76.3048 45.6688 76.3048H44.6121C45.4718 77.3109 45.4718 77.3109 45.4718 77.3109C45.2572 77.4206 44.8804 77.4938 44.5764 77.5121C43.233 77.5121 42.1582 76.3964 42.1582 74.8784V74.8602C42.1582 73.3047 43.1612 72.2265 44.5228 72.2078C45.8843 72.2078 46.9763 73.3055 46.9763 74.8414L46.9765 74.8779ZM44.5399 71.3836C42.6582 71.4021 41.207 72.8467 41.207 74.8951V74.9135C41.207 76.9258 42.6949 78.353 44.5569 78.3342C45.0405 78.3342 45.6136 78.2061 46.0434 77.9866L46.5452 78.5903H47.602L46.7066 77.5293C47.4413 76.9621 47.9066 76.0113 47.9066 74.8408V74.8224C47.9066 72.8101 46.4201 71.3656 44.5398 71.383" fill="black"/>
<path d="M79.4176 59.2553V58.7985H79.7403C79.9194 58.7985 80.0269 58.8899 80.0269 59.0362C80.0269 59.164 79.9194 59.2553 79.7403 59.2553H79.4176ZM79.024 60.0968H79.4176V59.585H79.6509C80.0087 60.0968 80.0087 60.0968 80.0087 60.0968H80.4749C80.0625 59.5115 80.0625 59.5115 80.0625 59.5115C80.2778 59.4387 80.4211 59.2738 80.4211 58.9998C80.4211 58.6336 80.152 58.451 79.7759 58.451H79.0239L79.024 60.0968ZM79.6509 60.7369C78.8807 60.7369 78.2893 60.0968 78.2893 59.3287V59.3102C78.2893 58.5422 78.8805 57.902 79.6509 57.902C80.4386 57.902 81.0299 58.5237 81.0299 59.3102C81.0299 60.0788 80.4386 60.7369 79.6509 60.7369ZM79.6509 60.9017C80.5281 60.9017 81.2094 60.1701 81.2094 59.3102C81.2094 58.4323 80.5286 57.7188 79.6509 57.7188C78.7906 57.7188 78.1094 58.4503 78.1094 59.3102V59.3287C78.1094 60.1887 78.79 60.9014 79.6509 60.9014" fill="#EC1E27"/>
</g>
</g>
</g>
<defs>
<filter id="filter0_d_16812_8282" x="0" y="0" width="126" height="126" filterUnits="userSpaceOnUse" color-interpolation-filters="sRGB">
<feFlood flood-opacity="0" result="BackgroundImageFix"/>
<feColorMatrix in="SourceAlpha" type="matrix" values="0 0 0 0 0 0 0 0 0 0 0 0 0 0 0 0 0 0 127 0" result="hardAlpha"/>
<feOffset/>
<feGaussianBlur stdDeviation="6.5"/>
<feComposite in2="hardAlpha" operator="out"/>
<feColorMatrix type="matrix" values="0 0 0 0 0.831731 0 0 0 0 0.831731 0 0 0 0 0.831731 0 0 0 0.25 0"/>
<feBlend mode="normal" in2="BackgroundImageFix" result="effect1_dropShadow_16812_8282"/>
<feBlend mode="normal" in="SourceGraphic" in2="effect1_dropShadow_16812_8282" result="shape"/>
</filter>
<clipPath id="clip0_16812_8282">
<rect width="62" height="30.008" fill="white" transform="translate(32 47.9961)"/>
</clipPath>
</defs>
</svg>
