<svg width="81" height="29" viewBox="0 0 81 29" fill="none" xmlns="http://www.w3.org/2000/svg">
<g clip-path="url(#clip0_16812_8636)">
<mask id="mask0_16812_8636" style="mask-type:luminance" maskUnits="userSpaceOnUse" x="0" y="0" width="81" height="29">
<path d="M81 0.554688H0V28.4547H81V0.554688Z" fill="white"/>
</mask>
<g mask="url(#mask0_16812_8636)">
<path fill-rule="evenodd" clip-rule="evenodd" d="M45.8536 19.1135C45.8536 21.8612 45.0172 24.1959 43.466 25.8635C41.9359 27.4728 39.8024 28.3358 37.3037 28.3624H37.2454C35.0537 28.3624 33.1636 27.78 31.7236 26.6152L31.5014 28.0288H28.5312V3.10938H31.946V11.527C33.3861 10.447 35.1648 9.85936 37.219 9.85936H37.6371C42.6614 10.0553 45.8802 13.6394 45.8536 19.1135ZM42.132 19.0871C42.132 15.3335 40.4114 12.9458 37.6054 12.7764H37.3037C34.2754 12.7764 32.4171 15.1958 32.4171 19.1135C32.4171 23.0311 34.2489 25.4453 37.2454 25.4453H37.3831C40.3001 25.3659 42.1054 22.9464 42.132 19.0871ZM64.0919 19.1665C64.0919 21.9193 63.2555 24.2541 61.7043 25.9164C60.1478 27.5576 57.9825 28.4205 55.4571 28.4205C49.5436 28.4205 46.7959 24.7781 46.7959 19.1399C46.7959 16.3923 47.6272 14.0576 49.1837 12.39C50.7402 10.7223 52.9001 9.85936 55.4307 9.85936C60.6772 9.85936 64.0919 13.5017 64.0919 19.1665ZM60.3119 19.1135C60.3119 15.1958 58.4802 12.7764 55.4837 12.7764C52.4608 12.7764 50.5971 15.1958 50.5971 19.1135C50.5971 23.0311 52.429 25.4453 55.4307 25.4453C58.4272 25.4453 60.3119 23.0311 60.3119 19.1135ZM73.8595 25.4453C77.1366 25.4453 79.0531 23.6399 79.2172 23.4441L80.6889 25.8635C80.6889 25.8635 78.3278 28.3624 73.4148 28.3624C68.5018 28.3624 65.0078 24.9742 65.0078 19.1665C65.0078 13.3058 68.6713 9.89113 73.4148 9.89113C78.1901 9.89113 80.9961 13.4753 80.9961 18.5577L80.9695 19.9765H68.6713C68.6977 23.5552 70.5296 25.4453 73.8595 25.4453ZM73.3037 12.6123C70.196 12.6123 68.8354 15.1694 68.6713 17.3347H77.5813C77.5813 14.9153 76.3848 12.6123 73.3037 12.6123Z" fill="#002051"/>
<path d="M22.0322 11.5015L19.8086 9.27801L20.7827 8.27742L22.0322 7.02801L24.2821 9.27801L22.0322 11.5015ZM22.0322 5.03212L19.8086 2.80859L21.0845 1.52742L22.0322 0.558594L24.2769 2.80859L22.0322 5.03212ZM25.2827 8.28272L23.0327 6.03271L24.2821 4.80978L25.2827 3.80918L27.501 6.03271L25.2827 8.28272Z" fill="#00A82D"/>
<path d="M12.1757 24.9501C7.18334 24.9501 3.93277 20.9213 3.93277 15.0289C3.93277 9.14181 7.34747 5.113 12.2869 5.113C15.9239 5.113 17.5333 6.94477 18.7828 8.27887L21.0063 6.02889C19.8415 4.80593 17.4804 1.83594 12.1757 1.83594C5.65335 1.83594 0.046875 6.75418 0.046875 15.0606C0.046875 23.3936 5.07099 28.3383 12.0116 28.3383C17.1734 28.3383 19.9792 25.6172 21.0593 24.1982L18.7563 21.8954C17.7558 23.06 15.5904 24.9501 12.1757 24.9501Z" fill="#002051"/>
</g>
</g>
<defs>
<clipPath id="clip0_16812_8636">
<rect width="81" height="28.026" fill="white" transform="translate(0 0.554688)"/>
</clipPath>
</defs>
</svg>
