<svg width="76" height="34" viewBox="0 0 76 34" fill="none" xmlns="http://www.w3.org/2000/svg">
<g clip-path="url(#clip0_16812_8644)">
<mask id="mask0_16812_8644" style="mask-type:luminance" maskUnits="userSpaceOnUse" x="0" y="0" width="76" height="34">
<path d="M76 0.140625H0V33.3652H76V0.140625Z" fill="white"/>
</mask>
<g mask="url(#mask0_16812_8644)">
<mask id="mask1_16812_8644" style="mask-type:luminance" maskUnits="userSpaceOnUse" x="-616" y="-342" width="744" height="417">
<path d="M-615.07 -341.031H127.008V74.9659H-615.07V-341.031Z" fill="white"/>
</mask>
<g mask="url(#mask1_16812_8644)">
<path fill-rule="evenodd" clip-rule="evenodd" d="M12.7999 30.9023H14.6915V33.0553H9.8978V30.9023C8.93523 32.597 7.65659 33.3656 5.53031 33.3656C1.74228 33.3656 0.00390625 30.4393 0.00390625 27.05C0.00390625 22.8111 2.28343 20.5006 5.68834 20.5006C7.65659 20.5006 9.08847 21.3885 9.70623 22.7347V17.689H7.89125V15.5312H12.7999V30.9023ZM9.82117 26.8209C9.82117 24.6632 8.85382 22.6966 6.49766 22.6966C4.10321 22.6966 3.25079 24.7396 3.25079 26.9737C3.25079 29.5563 4.4097 31.2126 6.30611 31.2126C8.93523 31.2126 9.82117 29.3987 9.82117 26.8209ZM26.75 27.8234H17.4739C17.4739 29.8999 18.5944 31.0934 20.6441 31.2508H20.7973C22.2292 31.1744 23.2733 30.4393 23.7378 29.2459H26.6734C26.2088 32.2485 23.5797 33.3656 20.8739 33.3656C16.6262 33.3656 14.3036 30.9023 14.3036 26.8209C14.3036 22.9303 16.8561 20.5006 20.7973 20.5006C23.891 20.5006 26.0556 22.2382 26.5967 25.0881C26.75 26.0094 26.75 26.8973 26.75 27.8234ZM23.7378 25.7803C23.6612 23.8135 22.5788 22.6202 20.6441 22.6202C18.7525 22.6202 17.4739 23.8947 17.4739 25.7803H23.7378ZM41.3227 23.0069H39.9338L35.7196 33.0982H32.0466L27.9137 23.0069H26.4818V20.8109H33.0905V23.0069H31.1605L34.0195 30.4393L36.9934 23.0069H35.0635V20.8109H41.3227V23.0069ZM53.8073 26.9737C53.8073 30.9788 51.2597 33.3703 47.3136 33.3703C43.3722 33.3703 40.7432 30.9788 40.7432 26.9737C40.7432 22.9303 43.3722 20.5053 47.3136 20.5053C51.2597 20.5053 53.8073 22.9303 53.8073 26.9737ZM50.6371 26.9737C50.6371 24.8159 49.7511 22.6966 47.3136 22.6966C44.9191 22.6966 43.9901 24.8159 43.9901 26.9737C43.9901 29.0932 44.9191 31.1744 47.3136 31.1744C49.7511 31.1744 50.6371 29.0932 50.6371 26.9737ZM69.0361 30.9023V33.0982H62.3891V30.9023H64.1274V25.3937C64.1274 23.9711 63.3564 22.6966 61.7712 22.6966C59.645 22.6966 58.8309 24.4341 58.8309 26.2434V30.9023H60.5741V33.0982H53.9222V30.9023H55.742V23.0069H53.9222V20.8109H58.601V22.9303H58.6776C59.4534 21.4267 61.0337 20.5053 62.8536 20.5053C66.0239 20.5053 67.221 22.1572 67.221 25.2026V30.9023H69.0361Z" fill="#505050"/>
<path d="M53.9194 8.67545H75.9868V11.8308H53.9194V8.67545ZM61.4188 0.164062H75.9868V3.47697H61.4188V0.164062ZM47.6172 4.51762H75.9868V7.67775H47.6172V4.51762Z" fill="#F54123"/>
</g>
</g>
</g>
<defs>
<clipPath id="clip0_16812_8644">
<rect width="76" height="33.44" fill="white" transform="translate(0 0.140625)"/>
</clipPath>
</defs>
</svg>
