<svg width="100" height="38" viewBox="0 0 100 38" fill="none" xmlns="http://www.w3.org/2000/svg">
<mask id="mask0_16812_8629" style="mask-type:luminance" maskUnits="userSpaceOnUse" x="0" y="0" width="100" height="38">
<path d="M99.3867 0.695312H0.15625V37.254H99.3867V0.695312Z" fill="white"/>
</mask>
<g mask="url(#mask0_16812_8629)">
<path fill-rule="evenodd" clip-rule="evenodd" d="M46.4868 8.8868H46.4144L43.525 17.7451H49.3405L46.4868 8.8868ZM49.8105 19.0188H43.1275L41.7186 23.2099C41.0317 25.2514 40.6707 26.8195 42.8389 26.8554V27.4756H37.4922V26.8554C39.4429 26.5635 39.9122 25.5059 40.5618 23.5754L46.2701 6.3734H48.4016L54.3985 24.3413C55.0121 26.2717 55.5176 26.8554 57.3597 26.8554V27.4756H50.0637V26.8554C51.4726 26.8554 52.1581 26.2352 51.6893 24.8132L49.8105 19.0188ZM63.3163 25.0333C63.3163 26.4545 63.7498 26.8554 65.447 26.8554V27.4756H58.6922V26.8554C60.6429 26.8554 60.8596 26.3461 60.8596 24.3772V17.3442C60.8596 15.4484 60.3908 15.2291 58.2234 15.2291V14.6102L62.7019 14.21H63.3155V17.0165C65.6996 14.9379 66.82 14.2093 67.6876 14.2093C68.4096 14.2093 69.3851 14.6467 70.0352 15.2297L69.0598 17.5264C68.0127 16.9428 66.8924 16.397 66.0249 16.397C65.1951 16.397 64.4718 16.8344 63.3155 17.9625V25.0339M81.9181 18.7648H81.303C80.7612 16.4316 79.1356 14.9372 77.0036 14.9372C74.4752 14.9372 72.7053 17.1249 72.7053 20.2944C72.7053 23.8301 74.9098 26.783 77.5108 26.783C79.0646 26.783 80.942 25.9433 82.2777 24.0867V25.0333C80.9055 26.9278 78.9554 27.8751 76.6432 27.8751C72.8502 27.8751 70.2134 25.2147 70.2134 21.3527C70.2134 17.3795 73.1753 14.2093 76.824 14.2093C78.7387 14.2093 79.7866 14.9372 80.4362 14.9372C80.7606 14.9372 81.0863 14.6839 81.303 14.2093H81.9181V18.7648ZM96.58 24.3772C96.58 26.3461 96.941 26.8554 98.6396 26.8554V27.4756H91.9931V26.8554C93.7259 26.8554 94.1234 26.4545 94.1234 24.7793V18.4005C94.1234 16.6875 93.112 15.5933 91.5597 15.5933C90.1143 15.5933 89.0672 16.2853 87.8385 18.0362V25.1052C87.8385 26.4545 88.3798 26.8554 89.97 26.8554V27.4756H83.1062V26.8554C85.0216 26.8195 85.382 26.4545 85.382 24.3772V7.57526C85.382 5.89878 84.9118 5.64419 83.1062 5.64419V5.02529L87.2235 4.58594H87.838V16.7965C89.4635 14.9 90.6561 14.2093 92.3176 14.2093C94.4491 14.2093 96.5806 15.6293 96.5806 18.6923L96.58 24.3772Z" fill="#0853A6"/>
<path fill-rule="evenodd" clip-rule="evenodd" d="M14.8711 22.9001L0.15625 27.3002L5.77061 19.634L5.68116 23.1833L14.8704 22.8995M18.8253 22.6774L12.876 37.2447L10.6368 27.9184L13.2547 30.2275L18.8253 22.6774ZM20.4235 19.651L27.583 33.6242L19.1733 29.5101L22.5581 28.8793L20.4235 19.651ZM19.2777 15.6713L34.3582 18.4151L26.0477 22.7493L27.6437 19.5981L19.2777 15.6713ZM16.5378 14.6803L28.2613 4.49675L26.1396 13.8531L24.8275 10.5727L16.5378 14.6803ZM13.4127 16.4912L12.7513 0.695312L18.6399 8.13498L15.3176 7.20928L13.4127 16.4912ZM13.0562 20.1824L0.570799 11.0244L9.88018 10.7979L7.12981 12.93L13.0562 20.1824Z" fill="#0853A6"/>
</g>
</svg>
