<svg width="57" height="37" viewBox="0 0 57 37" fill="none" xmlns="http://www.w3.org/2000/svg">
<g clip-path="url(#clip0_16812_8619)">
<mask id="mask0_16812_8619" style="mask-type:luminance" maskUnits="userSpaceOnUse" x="0" y="0" width="57" height="37">
<path d="M56.1562 0.464844H0.515625V36.4883H56.1562V0.464844Z" fill="white"/>
</mask>
<g mask="url(#mask0_16812_8619)">
<path d="M36.2662 28.0103C36.2698 28.0389 36.2626 28.0674 36.2519 28.0961C36.2378 28.121 36.2165 28.1425 36.1951 28.1568C36.1703 28.1747 36.1418 28.1819 36.1133 28.1819H31.6337C31.6005 28.1819 31.5672 28.1771 31.5341 28.1676C31.5009 28.1604 31.469 28.1484 31.4381 28.1318C31.4073 28.1174 31.3788 28.0984 31.3528 28.0746C31.3268 28.0531 31.3042 28.0282 31.2852 27.9995L17.4906 9.01578C17.4728 8.99434 17.4622 8.96575 17.4622 8.93716C17.4587 8.90857 17.4622 8.87998 17.4764 8.8514C17.4906 8.82638 17.5084 8.80493 17.5333 8.79064C17.5581 8.77277 17.5866 8.76562 17.615 8.76562H22.0593C22.0924 8.76562 22.1256 8.77039 22.1587 8.77992C22.1919 8.78707 22.2239 8.79898 22.2548 8.81566C22.2856 8.82995 22.314 8.84902 22.34 8.87284C22.3662 8.89427 22.3886 8.9193 22.4077 8.94789L36.2378 27.9316C36.2555 27.9531 36.2662 27.9816 36.2662 28.0103Z" fill="#0769AF"/>
<path d="M31.3512 8.87317C31.3772 8.85174 31.4057 8.83268 31.4365 8.816C31.4672 8.8017 31.4993 8.78979 31.5324 8.78026C31.5656 8.77311 31.5989 8.76953 31.632 8.76953H36.1117C36.1402 8.76953 36.1686 8.77668 36.1935 8.79097C36.2184 8.80527 36.2362 8.83029 36.2503 8.8553C36.2646 8.88032 36.2681 8.90891 36.2681 8.94108C36.2646 8.96967 36.2539 8.99468 36.2362 9.01969L22.4024 28.0035C22.3811 28.0297 22.3574 28.0547 22.3314 28.0785C22.3052 28.1 22.278 28.119 22.2496 28.1357C22.2188 28.15 22.1867 28.1619 22.1535 28.1715C22.1204 28.1785 22.086 28.1821 22.0505 28.1821H17.6134C17.585 28.1821 17.5565 28.175 17.5317 28.1608C17.5068 28.1429 17.489 28.1214 17.4747 28.0964C17.4606 28.0714 17.457 28.0427 17.457 28.0106C17.4606 27.982 17.4712 27.9571 17.489 27.932L31.2801 8.94822C31.3014 8.92202 31.3251 8.89699 31.3512 8.87317Z" fill="#28A6DE"/>
<path fill-rule="evenodd" clip-rule="evenodd" d="M53.3166 11.6107C55.1262 13.4332 56.143 15.9027 56.143 18.4758C56.143 21.0489 55.1262 23.5184 53.3166 25.341C51.5069 27.1601 49.0501 28.1821 46.4903 28.1821H42V36.098C42 36.1516 41.9893 36.2017 41.968 36.2481C41.9502 36.2945 41.9218 36.3375 41.8862 36.3732C41.8507 36.409 41.808 36.4375 41.7582 36.459C41.712 36.4769 41.6622 36.4876 41.6124 36.4876H38.5087C38.4589 36.4876 38.4091 36.4769 38.3629 36.459C38.3167 36.4375 38.274 36.409 38.2349 36.3732C38.1993 36.3375 38.1709 36.2945 38.1531 36.2481C38.1318 36.2017 38.1211 36.148 38.1211 36.098V9.15908C38.1211 9.10904 38.1318 9.05543 38.1531 9.00898C38.1709 8.96252 38.1993 8.91963 38.2349 8.8839C38.274 8.84816 38.3167 8.81957 38.3629 8.79812C38.4091 8.78026 38.4589 8.76953 38.5087 8.76953H46.4903C49.0501 8.76953 51.5069 9.79163 53.3166 11.6107ZM50.5754 22.582C51.6598 21.4957 52.2677 20.0161 52.2677 18.4758C52.2677 16.9355 51.6598 15.456 50.5754 14.3696C49.491 13.2797 48.0227 12.6685 46.4903 12.6685H42V24.2832H46.4903C48.0227 24.2832 49.491 23.6721 50.5754 22.582Z" fill="#0769AF"/>
<path fill-rule="evenodd" clip-rule="evenodd" d="M17.837 22.1897C17.3535 23.3654 16.6424 24.4376 15.743 25.3381C14.847 26.2387 13.784 26.9535 12.6143 27.4431C11.4446 27.9291 10.1896 28.1829 8.92034 28.1829H0.942217C0.892442 28.1829 0.839112 28.1722 0.792894 28.1543C0.746674 28.1328 0.70401 28.1043 0.668457 28.0685C0.632905 28.0328 0.604462 27.9899 0.58313 27.9434C0.565353 27.897 0.554688 27.8433 0.554688 27.7933V0.854383C0.554688 0.80435 0.565353 0.750744 0.58313 0.704286C0.604462 0.657826 0.632905 0.614941 0.668457 0.579203C0.70401 0.543466 0.746674 0.514876 0.792894 0.493434C0.839112 0.475565 0.892442 0.464844 0.942217 0.464844H4.04956C4.09933 0.464844 4.14911 0.475565 4.19532 0.497008C4.24155 0.514876 4.28421 0.543466 4.31976 0.579203C4.35531 0.614941 4.38376 0.657826 4.40154 0.704286C4.41931 0.750744 4.42998 0.800776 4.42998 0.854383V8.77024H8.92034C10.1896 8.77024 11.4446 9.02398 12.6143 9.51001C13.784 9.99961 14.847 10.7144 15.743 11.6149C16.6424 12.5156 17.3535 13.5876 17.837 14.7634C18.3241 15.9392 18.5731 17.2008 18.5765 18.4765C18.5731 19.7524 18.3241 21.0139 17.837 22.1897ZM14.2569 16.2537C13.9653 15.5496 13.5423 14.9099 13.0054 14.3703C12.4685 13.8307 11.8321 13.4054 11.1317 13.1123C10.4313 12.8193 9.68118 12.6692 8.92034 12.6692H4.42998V24.2839H8.92034C9.68118 24.2839 10.4313 24.1338 11.1317 23.8408C11.8321 23.5477 12.4685 23.1224 13.0054 22.5828C13.5423 22.0431 13.9653 21.4035 14.2569 20.6995C14.5484 19.9954 14.6977 19.2377 14.6977 18.4765C14.6977 17.7153 14.5484 16.9577 14.2569 16.2537Z" fill="#0769AF"/>
</g>
</g>
<defs>
<clipPath id="clip0_16812_8619">
<rect width="55.6406" height="35.9438" fill="white" transform="translate(0.515625 0.464844)"/>
</clipPath>
</defs>
</svg>
