<svg width="59" height="45" viewBox="0 0 59 45" fill="none" xmlns="http://www.w3.org/2000/svg">
<path d="M13.2973 40.259H7.21664L6.08649 43.0709H1.48828L7.50753 27.3898C7.62839 27.0731 7.84255 26.8005 8.12169 26.6081C8.40082 26.4158 8.73178 26.3126 9.07079 26.3125H12.6692L18.975 43.0709H14.3273L13.2973 40.259ZM12.1413 36.9429L10.257 31.5161L8.42545 36.9429H12.1413ZM19.2648 40.7298V26.3156H24.9641C26.6481 26.3156 29.4621 26.5408 31.6223 28.6266C33.5819 30.511 33.959 32.9232 33.959 34.732C33.959 36.9429 33.4064 38.9025 31.7731 40.5358C30.4415 41.8675 28.207 43.0709 25.3412 43.0709H21.6049C20.9843 43.07 20.3895 42.8231 19.9508 42.3841C19.5121 41.9453 19.2654 41.3503 19.2648 40.7298ZM23.612 39.3799H24.4911C25.5469 39.3799 27.0283 39.2796 28.1596 38.1743C28.7123 37.6463 29.4406 36.5916 29.4406 34.732C29.4406 33.1742 28.9633 31.8426 28.1348 31.0636C27.1037 30.1091 25.7474 30.0089 24.6668 30.0089H23.612V39.3799ZM33.9676 43.0709L36.8065 26.3135H41.1031L44.4946 33.8551L48.0877 26.3135H50.9965C51.3976 26.3132 51.7854 26.457 52.0893 26.7186C52.3932 26.9802 52.593 27.3423 52.6525 27.7389L54.9473 43.0709H50.6L49.3697 33.423L45.5429 40.385C45.4385 40.5639 45.2891 40.7122 45.1095 40.8153C44.93 40.9185 44.7265 40.9727 44.5195 40.9727C44.3123 40.9727 44.1089 40.9185 43.9293 40.8153C43.7497 40.7122 43.6002 40.5639 43.4959 40.385L39.7251 33.4284L38.289 43.0709H33.9676Z" fill="#27245F"/>
<path d="M49.0743 1.26953H30.6255C22.7391 1.26953 16.0207 4.83777 13.2593 12.0701L9.61465 21.6146C9.37979 22.2286 9.86568 22.915 10.5347 22.915H29.282C37.1134 22.915 43.9525 18.2694 46.6944 11.0876L50.1333 2.76277C50.3984 2.05816 49.8435 1.26953 49.0743 1.26953ZM43.2209 9.56526C40.9865 15.4175 35.4176 19.2001 29.0363 19.2001H16.3536C17.7981 17.5524 19.5792 16.2336 21.5768 15.3328C23.5743 14.4319 25.7419 13.9701 27.9332 13.9781H30.5016C32.5561 13.9781 35.4251 12.778 36.1772 10.2569H27.7381C23.7721 10.238 19.9005 11.4658 16.6703 13.767L16.75 13.558C18.9932 7.67986 24.4176 4.98968 30.8237 4.98968H45.2271L43.2209 9.56526Z" fill="url(#paint0_linear_16812_8615)"/>
<path d="M56.1868 27.3216C56.1903 27.2875 56.1841 27.2531 56.1688 27.2223C56.1536 27.1917 56.1299 27.1659 56.1005 27.1482C56.0471 27.127 55.9897 27.1181 55.9324 27.1223H55.7557V27.5253H55.9885C56.0152 27.527 56.042 27.5233 56.0673 27.5142C56.0925 27.5051 56.1156 27.4909 56.135 27.4725C56.1531 27.452 56.1671 27.4281 56.1759 27.4022C56.1848 27.3763 56.1884 27.3489 56.1868 27.3216ZM56.261 27.731L56.5552 28.2696C56.5592 28.2765 56.5613 28.2843 56.5613 28.2923C56.5613 28.3003 56.5592 28.308 56.5552 28.3149C56.5517 28.3222 56.5463 28.3282 56.5393 28.3322C56.5324 28.3362 56.5244 28.3381 56.5164 28.3376H56.3009C56.2925 28.3382 56.2841 28.3361 56.277 28.3317C56.2698 28.3272 56.2642 28.3206 56.261 28.3128L55.9832 27.7892H55.7601V28.2912C55.7604 28.2974 55.7594 28.3036 55.7571 28.3093C55.7549 28.3151 55.7515 28.3202 55.7471 28.3247C55.7429 28.3289 55.7379 28.3322 55.7323 28.3345C55.7268 28.3367 55.7208 28.3377 55.7148 28.3376H55.522C55.516 28.3377 55.51 28.3367 55.5045 28.3345C55.499 28.3322 55.4939 28.3289 55.4896 28.3247C55.485 28.3205 55.4814 28.3153 55.4789 28.3095C55.4765 28.3037 55.4754 28.2975 55.4756 28.2912V26.9078C55.4754 26.9017 55.4765 26.8954 55.4789 26.8895C55.4814 26.8838 55.485 26.8787 55.4896 26.8745C55.4939 26.8703 55.499 26.8669 55.5045 26.8647C55.51 26.8625 55.516 26.8615 55.522 26.8616H55.9443C56.0364 26.8576 56.1286 26.8693 56.2169 26.8961C56.2967 26.9249 56.3643 26.98 56.4087 27.0523C56.4569 27.1298 56.4816 27.2195 56.4798 27.3108C56.4811 27.3939 56.4599 27.4759 56.4184 27.5479C56.3804 27.616 56.3225 27.6709 56.2524 27.7051L56.261 27.731ZM55.9766 26.5459C55.8355 26.5455 55.6958 26.574 55.5662 26.63C55.3123 26.7357 55.1107 26.9375 55.0048 27.1912C54.9495 27.3209 54.9209 27.4606 54.9209 27.6017C54.9209 27.7428 54.9495 27.8824 55.0048 28.0122C55.111 28.266 55.3126 28.4679 55.5662 28.5746C55.6961 28.6294 55.8357 28.6576 55.9766 28.6576C56.1177 28.6576 56.2572 28.6294 56.3872 28.5746C56.6413 28.4684 56.8433 28.2663 56.9495 28.0122C57.0049 27.8824 57.0335 27.7428 57.0335 27.6017C57.0335 27.4606 57.0049 27.3209 56.9495 27.1912C56.8436 26.9371 56.6415 26.7353 56.3872 26.63C56.2578 26.5727 56.118 26.543 55.9766 26.5427V26.5459ZM57.263 27.6017C57.2634 27.7736 57.2285 27.9437 57.1607 28.1016C57.0975 28.2552 57.0045 28.3947 56.8871 28.5121C56.7696 28.6296 56.6301 28.7225 56.4766 28.7858C56.3187 28.8533 56.1489 28.8881 55.9772 28.8881C55.8055 28.8881 55.6357 28.8533 55.4779 28.7858C55.3246 28.7219 55.1853 28.6289 55.0673 28.5121C54.9506 28.3939 54.8574 28.2546 54.7926 28.1016C54.7258 27.9436 54.6914 27.7738 54.6914 27.6022C54.6914 27.4307 54.7258 27.2609 54.7926 27.1029C54.8569 26.9497 54.9503 26.8103 55.0673 26.6924C55.1849 26.5748 55.3243 26.4816 55.4779 26.4177C55.6358 26.3509 55.8056 26.3164 55.9772 26.3164C56.1488 26.3164 56.3185 26.3509 56.4766 26.4177C56.6301 26.4813 56.7695 26.5746 56.8869 26.6922C57.0042 26.8097 57.0973 26.9493 57.1607 27.1029C57.2282 27.2594 57.263 27.4281 57.263 27.5985V27.6017Z" fill="#27245F"/>
<defs>
<linearGradient id="paint0_linear_16812_8615" x1="9.55432" y1="12.0917" x2="50.2013" y2="12.0917" gradientUnits="userSpaceOnUse">
<stop stop-color="#A6CE39"/>
<stop offset="1" stop-color="#11B04B"/>
</linearGradient>
</defs>
</svg>
