<svg width="91" height="35" viewBox="0 0 91 35" fill="none" xmlns="http://www.w3.org/2000/svg">
<path fill-rule="evenodd" clip-rule="evenodd" d="M89.7598 17.1496C85.2258 26.4363 65.1723 33.997 45.1208 33.997C25.0489 33.997 12.3908 26.4363 16.9243 17.1496C21.4399 7.89904 41.5108 0.320312 61.5645 0.320312C81.6353 0.320312 94.2916 7.89904 89.7598 17.1496Z" fill="#032B76"/>
<path fill-rule="evenodd" clip-rule="evenodd" d="M61.1118 0.679688C80.6135 0.679688 92.8876 8.02495 88.4519 17.0059C84.0342 26.0057 64.5149 33.3515 45.0518 33.3515C25.5509 33.3515 13.2758 26.0057 17.6929 17.0059C20.5602 11.2159 29.6417 6.13473 40.9419 3.22008C41.7441 3.00252 42.5668 2.82598 43.3889 2.62829C49.0092 1.38884 55.0704 0.679688 61.1118 0.679688Z" fill="#0A0A08"/>
<path fill-rule="evenodd" clip-rule="evenodd" d="M60.8187 1.16797C80.0745 1.16797 92.219 8.25698 87.8699 16.9107C83.5203 25.5979 64.2814 32.6714 45.0433 32.6714C25.787 32.6714 13.6426 25.5979 17.9926 16.9107C22.3248 8.25698 41.58 1.16797 60.8187 1.16797Z" fill="#969998"/>
<path fill-rule="evenodd" clip-rule="evenodd" d="M57.7507 2.64844C75.1473 2.64844 86.0968 8.98921 82.1397 16.7422C78.1991 24.5115 60.7861 30.8529 43.4238 30.8529C26.0275 30.8529 15.0773 24.5115 19.0176 16.7422C21.5756 11.744 29.6768 7.35723 39.7574 4.84153C40.4732 4.65363 41.207 4.50124 41.9403 4.33094C46.9542 3.26055 52.3611 2.64844 57.7507 2.64844Z" fill="#0A0A08"/>
<path fill-rule="evenodd" clip-rule="evenodd" d="M79.2811 10.3809C80.1159 11.763 80.2701 13.3186 79.6093 14.9494C78.9903 16.1839 78.2803 17.1777 77.2221 18.1555C71.7336 23.2104 59.3827 26.9806 47.0482 26.9806C32.5051 26.9806 23.3339 21.7418 26.6473 15.3193C28.9237 10.8981 36.6383 6.87865 45.877 4.8924C46.9639 4.65924 48.0681 4.47574 49.1892 4.30859C47.0158 4.52593 44.8889 4.84244 42.7979 5.29261C32.5553 7.54537 23.8698 11.1825 21.3418 16.2203C17.6773 23.5442 27.8352 29.5161 43.9695 29.5161C57.1889 29.5161 70.4277 25.5128 76.7872 20.0235C77.5053 19.4074 78.3458 18.537 79.0054 17.6097C79.2777 17.2344 79.5163 16.8545 79.7157 16.4711C80.854 14.2685 80.6366 12.1831 79.2811 10.3809Z" fill="#0D5DB8"/>
<path fill-rule="evenodd" clip-rule="evenodd" d="M10.4067 15.5894C10.0985 16.0724 9.78913 16.429 9.48735 16.6497L9.47538 16.6595C9.12703 16.9324 8.67079 17.0712 8.11928 17.0712C7.76105 17.0712 7.51509 16.9999 7.44648 16.8787C7.43934 16.8616 7.27774 16.4165 7.77657 14.8147C8.10648 13.8002 8.49094 13.0754 8.91926 12.6603C9.45104 12.1298 10.0216 11.8827 10.715 11.8827C10.9328 11.8827 11.1138 11.9164 11.2239 11.977C11.3064 12.0235 11.3717 12.0599 11.3975 12.3587L11.4982 13.5281H17.0276C16.6805 13.9865 16.3835 14.4806 16.1451 14.9979H10.7845L10.4067 15.5894ZM23.8103 15.9293C23.6041 16.5839 23.3382 17.0593 23.0417 17.3032C22.7385 17.5451 22.4837 17.6532 22.2153 17.6532C22.1596 17.6532 22.1243 17.6483 22.1034 17.6435C22.0917 17.5712 22.0741 17.3147 22.2586 16.7283C22.4346 16.1311 22.6936 15.6778 23.0064 15.4173C23.2931 15.1888 23.5586 15.0868 23.8669 15.0868C23.9042 15.0868 23.931 15.0888 23.9497 15.0916C23.961 15.1727 23.9683 15.4139 23.8103 15.9293ZM37.0143 15.9171C36.8446 16.4953 36.6164 16.9262 36.372 17.1308C36.1725 17.2983 36.004 17.3796 35.8569 17.3796C35.842 17.3796 35.8287 17.3792 35.8165 17.3788C35.8196 17.278 35.8427 17.0756 35.9477 16.7377C36.176 15.997 36.4335 15.6793 36.6097 15.5426C36.8111 15.3788 36.9842 15.2931 37.1662 15.2678C37.1555 15.3902 37.1204 15.5939 37.0184 15.9039L37.0143 15.9171ZM75.8667 10.1655L77.3331 5.48047L69.7963 8.59653L69.6037 8.67637L69.1385 10.1654H67.6443L67.583 10.3606C66.9525 10.0794 66.3304 9.94263 65.6822 9.94263C65.174 9.94263 64.6914 10.0176 64.2475 10.1653H58.3445L57.2275 13.722C57.229 13.5767 57.225 13.4278 57.215 13.2772C57.1618 12.5051 56.8897 11.8211 56.4489 11.3525C55.9 10.7272 55.1256 10.3241 54.1477 10.1538C53.4228 10.0097 52.4397 9.94255 51.0532 9.94255C50.242 9.94255 49.476 9.99732 48.7114 10.1105C47.8467 10.2436 47.2124 10.4182 46.7161 10.6594C45.9803 10.9778 45.3699 11.3648 44.9036 11.8094C44.4925 12.183 44.1168 12.6588 43.7561 13.2621C43.6822 12.8841 43.569 12.5204 43.4187 12.1792C42.9405 11.1588 41.8642 9.94248 39.4503 9.94248C38.8541 9.94248 38.2912 10.0172 37.7319 10.171L37.7339 10.1662H31.2865L30.3585 13.1216C30.2509 12.8157 30.1092 12.5189 29.937 12.238C28.9657 10.7153 27.1721 9.94337 24.6059 9.94337C22.501 9.94337 20.6275 10.5054 19.0379 11.6144C18.7449 11.8198 18.4643 12.0401 18.2035 12.2693V12.2499C18.2035 10.0699 17.6096 8.52773 16.3884 7.53555C15.3242 6.6302 13.7553 6.19004 11.5919 6.19004C9.01084 6.19004 6.73892 6.88331 4.83885 8.25122C2.94929 9.62329 1.60514 11.5782 0.84419 14.0608C0.228255 15.9996 0.159212 17.6637 0.63874 19.0076C1.15247 20.4115 2.00262 21.4118 3.16524 21.9798C4.21012 22.5007 5.63401 22.7645 7.39725 22.7645C8.86395 22.7645 10.1472 22.5595 11.2108 22.1542C12.2842 21.7657 13.3008 21.1589 14.2328 20.3501C14.6579 19.969 15.1255 19.4641 15.5534 18.9247C15.7811 19.9799 16.3362 20.7259 16.7658 21.1683C17.8163 22.216 19.3781 22.7474 21.4081 22.7474C23.541 22.7474 25.4369 22.1799 27.0425 21.0598C27.4407 20.7821 27.8129 20.4768 28.1507 20.1513L26.2373 26.2437H32.9815L34.2038 22.3757C34.792 22.6226 35.4693 22.7474 36.2176 22.7474C37.7879 22.7474 39.2574 22.2237 40.5849 21.1901C40.9642 20.8933 41.3209 20.5515 41.6463 20.1736C41.7663 20.6607 42.0051 21.1045 42.3561 21.4929C43.0976 22.337 44.2613 22.7474 45.9135 22.7474C47.0033 22.7474 48.0249 22.5849 48.9502 22.2639C49.1021 22.2104 49.2576 22.1491 49.4128 22.0816L49.561 22.5239H61.1922L62.5055 18.3386C63.0524 16.6063 63.5533 15.9143 63.8021 15.6572C64.0425 15.4431 64.2034 15.4135 64.3416 15.4135C64.3572 15.4135 64.5068 15.4184 64.8708 15.5783L65.7779 15.9779L66.2089 15.4601L67.4769 15.4626L66.9201 17.2361C66.4851 18.5568 66.3385 19.4989 66.4586 20.2001C66.5843 21.0577 67.0481 21.7677 67.7646 22.1986C68.3763 22.5725 69.2608 22.7465 70.5479 22.7465C71.4872 22.7465 72.5356 22.6351 73.6643 22.415L74.2125 22.3082L74.5042 22.2507L75.6332 16.7304L73.613 17.3212L74.1916 15.4637H76.4069L78.0669 10.1646L75.8667 10.1655Z" fill="white"/>
<path fill-rule="evenodd" clip-rule="evenodd" d="M10.9706 15.3353L10.6931 15.7702C10.362 16.2888 10.0239 16.6767 9.68476 16.9246C9.27512 17.2457 8.74774 17.4088 8.11794 17.4088C7.61157 17.4088 7.2846 17.2847 7.1461 17.0392C7.10034 16.9598 6.90035 16.4748 7.44913 14.713C7.7975 13.6417 8.21155 12.8684 8.681 12.4136C9.26966 11.8262 9.9347 11.5406 10.7137 11.5406C10.9964 11.5406 11.2232 11.5866 11.3871 11.6769C11.5819 11.7864 11.7013 11.9277 11.7359 12.3275L11.8098 13.186H17.7511C17.1648 13.8316 16.7012 14.5501 16.3656 15.3354L10.9706 15.3353ZM24.1354 16.0263C23.9052 16.7563 23.6098 17.2739 23.2584 17.563C22.8922 17.8552 22.5604 17.9916 22.2139 17.9916C21.9063 17.9916 21.8433 17.8843 21.8011 17.8122C21.7847 17.7852 21.6499 17.5221 21.932 16.624C22.1287 15.9576 22.4164 15.4632 22.7854 15.1561C23.1364 14.876 23.4797 14.7455 23.8655 14.7455C24.1493 14.7455 24.1986 14.8295 24.2525 14.9207C24.2586 14.9305 24.399 15.1673 24.1354 16.0263ZM35.6205 16.6344C35.8218 15.9817 36.0908 15.5106 36.4006 15.2706C36.6967 15.0297 36.9766 14.9172 37.282 14.9172C37.4385 14.9172 37.4491 14.9366 37.4851 15.0016C37.5163 15.0544 37.5561 15.3522 37.3404 16.0099C37.149 16.6611 36.8896 17.1381 36.5899 17.3887C36.3267 17.6097 36.0865 17.7169 35.8557 17.7169C35.5767 17.7169 35.5301 17.6392 35.4995 17.5884C35.4984 17.5861 35.392 17.3706 35.6205 16.6344ZM43.2085 16.4677C43.3455 15.983 43.4382 15.5104 43.4853 15.0584L45.2749 15.2391C44.6241 15.4594 44.0948 15.7314 43.6668 16.0644C43.5048 16.1895 43.3517 16.3246 43.2085 16.4677ZM76.155 15.1222L77.6019 10.5028H75.4017L76.7889 6.07031L69.8802 8.92684L69.3883 10.5028H67.8935L67.7881 10.838C67.0847 10.4627 66.394 10.2801 65.6809 10.2801C65.1886 10.2801 64.7258 10.355 64.3028 10.5028H58.5939L55.2092 21.2802L55.1777 21.0899C55.1022 20.6347 55.0945 20.4081 55.1013 20.2992C55.1095 20.1851 55.1511 19.9417 55.3022 19.4326L56.6565 15.1123C56.8454 14.5435 56.9164 13.9498 56.8734 13.297C56.8255 12.5999 56.5842 11.9889 56.1964 11.5795C55.6997 11.0113 54.9899 10.6433 54.0895 10.4866C53.3803 10.3457 52.4151 10.28 51.052 10.28C50.2575 10.28 49.5079 10.3335 48.76 10.4445C47.9274 10.5725 47.3219 10.7385 46.8598 10.9648C46.1567 11.2679 45.5772 11.634 45.1393 12.0513C44.6729 12.4758 44.2497 13.0439 43.8457 13.7885L43.5192 14.3901C43.5199 13.6358 43.3812 12.9389 43.1044 12.3118C42.6701 11.3849 41.6833 10.2799 39.4491 10.2799C38.6701 10.2799 37.9343 10.4174 37.209 10.6989L37.2698 10.5028H31.5359L30.2768 14.5115C30.2448 13.7486 30.0331 13.0446 29.644 12.411C28.742 10.9969 27.0465 10.28 24.6046 10.28C22.5711 10.28 20.7635 10.8213 19.232 11.8896C18.7211 12.2482 18.2638 12.6411 17.8612 13.067V12.2472C17.8612 10.1758 17.3083 8.71983 16.1731 7.7971C15.1685 6.94258 13.6695 6.52733 11.5907 6.52733C9.08285 6.52733 6.87787 7.19903 5.03699 8.52403C3.20933 9.85153 1.90799 11.747 1.16929 14.1569C0.575598 16.0256 0.504665 17.6186 0.95901 18.8916C1.44085 20.2082 2.23326 21.1436 3.31342 21.6719C4.31276 22.1695 5.6863 22.422 7.396 22.422C8.82074 22.422 10.0631 22.2241 11.087 21.8346C12.1252 21.4585 13.1077 20.8718 14.0087 20.0902C14.6072 19.5538 15.2684 18.7864 15.7883 18.0315C15.8271 19.4154 16.4604 20.3638 17.0105 20.9304C17.9916 21.9086 19.4708 22.4048 21.4069 22.4048C23.4686 22.4048 25.2986 21.8578 26.846 20.7786C27.7099 20.1755 28.4257 19.4573 28.9819 18.636L26.7 25.9011H32.7302L33.9935 21.9035C34.0695 21.9424 34.1471 21.9785 34.2246 22.0113C34.7954 22.2727 35.4655 22.405 36.2164 22.405C37.7088 22.405 39.1075 21.9053 40.374 20.9195C40.9479 20.4703 41.4602 19.9204 41.9019 19.2808C41.8575 20.2096 42.2457 20.8618 42.6075 21.262C43.2831 22.0311 44.364 22.405 45.9123 22.405C46.9637 22.405 47.9476 22.2486 48.8372 21.9404C49.0891 21.8515 49.3497 21.741 49.614 21.6107L49.8053 22.1815H60.9404L62.1785 18.2352C62.7233 16.511 63.2341 15.7454 63.5628 15.4111C63.8231 15.176 64.0631 15.0711 64.3403 15.0711C64.4084 15.0711 64.6099 15.0906 65.0075 15.2649L65.6787 15.5609L66.048 15.1176L67.9394 15.1225L67.2449 17.3355C66.8254 18.6093 66.6823 19.5024 66.7941 20.1445C66.9038 20.9025 67.3104 21.5284 67.939 21.9068C68.4967 22.2473 69.3253 22.4057 70.5467 22.4057C71.4636 22.4057 72.4899 22.2963 73.5974 22.0802L74.2142 21.9601L75.1848 17.2145L73.6848 17.6533C73.47 17.7158 73.2754 17.7665 73.1042 17.8033L73.939 15.1229L76.155 15.1222Z" fill="#0A0A08"/>
<path fill-rule="evenodd" clip-rule="evenodd" d="M15.7173 16.273C15.2535 17.3351 14.2388 18.6203 13.3797 19.3911C12.5883 20.0775 11.7115 20.6085 10.7663 20.9512C9.82086 21.3106 8.68678 21.4822 7.397 21.4822C5.81507 21.4822 4.59517 21.2592 3.73558 20.8307C2.85901 20.4024 2.23972 19.6482 1.84496 18.5688C1.46555 17.5065 1.5348 16.1184 2.06804 14.439C2.75596 12.1955 3.94188 10.4803 5.59242 9.28189C7.25932 8.08238 9.25362 7.46484 11.5916 7.46484C13.4134 7.46484 14.7372 7.80789 15.5626 8.51036C16.6799 9.41804 16.9206 10.9094 16.9206 12.2461H12.6751C12.6233 11.6463 12.3996 11.1662 11.85 10.8579C11.5396 10.6863 11.1619 10.6006 10.7146 10.6006C9.70041 10.6006 8.78919 10.9773 8.01566 11.7488C7.43162 12.3147 6.94979 13.2056 6.55419 14.4219C6.0902 15.9126 6.00479 16.9416 6.33092 17.5066C6.64066 18.0557 7.24254 18.3462 8.1189 18.3462C8.97871 18.3462 9.70041 18.106 10.2681 17.6612C10.7146 17.335 11.1272 16.8389 11.4886 16.273H15.7173Z" fill="white"/>
<path fill-rule="evenodd" clip-rule="evenodd" d="M25.033 16.3083C24.7411 17.234 24.3456 17.8852 23.8466 18.2956C23.331 18.7074 22.7984 18.9302 22.2131 18.9302C21.6465 18.9302 21.2338 18.7076 20.9933 18.2956C20.7351 17.8682 20.7526 17.2339 21.0277 16.3587C21.2855 15.4855 21.6806 14.8517 22.196 14.4231C22.7118 14.0112 23.2625 13.8068 23.8648 13.8068C24.4139 13.8068 24.8092 14.0113 25.0505 14.4231C25.3082 14.8344 25.2905 15.469 25.033 16.3083ZM28.8486 12.915C28.1272 11.7839 26.7178 11.2188 24.6039 11.2188C22.7635 11.2188 21.1473 11.6992 19.7732 12.6579C18.3802 13.6348 17.4513 14.8688 16.9877 16.3587C16.4721 17.9703 16.7126 19.2731 17.6758 20.2669C18.4659 21.0548 19.7035 21.4663 21.4061 21.4663C23.2958 21.4663 24.9298 20.969 26.305 20.0096C27.68 19.0501 28.5917 17.8161 29.0725 16.3083C29.5022 14.9718 29.4167 13.8407 28.8486 12.915Z" fill="white"/>
<path fill-rule="evenodd" clip-rule="evenodd" d="M38.2427 16.2742C37.9857 17.148 37.6248 17.7475 37.1948 18.1073C36.7652 18.4676 36.3186 18.6561 35.8542 18.6561C35.3211 18.6561 34.9256 18.4678 34.7021 18.0898C34.4615 17.7137 34.4793 17.131 34.7192 16.3587C34.9775 15.5205 35.3384 14.903 35.8032 14.5438C36.2666 14.1664 36.7476 13.9783 37.2807 13.9783C37.7451 13.9783 38.0893 14.1497 38.2957 14.526C38.5181 14.9029 38.5019 15.4856 38.2427 16.2742ZM42.2496 12.7092C41.7844 11.7161 40.8566 11.2188 39.4476 11.2188C38.7423 11.2188 38.0545 11.3555 37.3673 11.6476C36.8684 11.8527 36.2666 12.2637 35.5451 12.8808L35.9914 11.4415H32.2265L27.9805 24.9626H32.0382L33.5167 20.2838C33.7912 20.678 34.1696 20.969 34.6164 21.1579C35.0634 21.3627 35.5963 21.4663 36.2149 21.4663C37.4869 21.4663 38.691 21.0372 39.791 20.1813C40.9081 19.307 41.7162 18.0732 42.2316 16.4449C42.6964 14.9544 42.6964 13.7206 42.2496 12.7092Z" fill="white"/>
<path fill-rule="evenodd" clip-rule="evenodd" d="M51.0867 17.1825C50.9311 17.6452 50.7411 18.0389 50.4836 18.3304C50.2258 18.6214 49.8819 18.8613 49.4354 19.0674C48.9882 19.2733 48.5423 19.3759 48.0768 19.3759C47.6482 19.3759 47.355 19.2731 47.2014 19.0842C47.029 18.8961 46.9937 18.6561 47.0973 18.3651C47.167 18.1073 47.355 17.8852 47.6482 17.6791C47.9226 17.4734 48.5065 17.285 49.3839 17.0789C50.0373 16.9249 50.6554 16.7706 51.2738 16.5823L51.0867 17.1825ZM55.9334 13.361C55.8993 12.8644 55.7444 12.4701 55.4853 12.1967C55.1256 11.7839 54.5918 11.5271 53.9048 11.4076C53.2179 11.2706 52.2539 11.2188 51.0516 11.2188C50.2946 11.2188 49.5907 11.2706 48.9027 11.3728C48.2317 11.4753 47.664 11.6133 47.2525 11.8188C46.6505 12.0757 46.1529 12.384 45.7745 12.7442C45.3794 13.1038 45.0181 13.6003 44.6739 14.2352L48.4026 14.6117C48.6965 14.1835 48.9882 13.8923 49.2982 13.7377C49.6939 13.5491 50.2095 13.4465 50.8796 13.4465C51.3946 13.4465 51.7219 13.5319 51.8759 13.7205C52.0149 13.9089 52.0149 14.2352 51.8759 14.6977C51.31 14.8688 50.7926 15.0229 50.3123 15.1432C49.8138 15.2454 48.7819 15.4522 47.1837 15.7423C45.8427 15.965 44.8627 16.3245 44.2444 16.8055C43.626 17.2849 43.1957 17.9024 42.9721 18.639C42.7145 19.4445 42.8354 20.112 43.3159 20.6435C43.7978 21.1921 44.6568 21.4663 45.9119 21.4663C46.8561 21.4663 47.733 21.3284 48.5232 21.0548C49.1085 20.8489 49.7454 20.5066 50.4148 20.0439C50.3804 20.3177 50.364 20.5232 50.364 20.6606C50.364 20.7985 50.3971 20.985 50.4836 21.2428H54.248C54.18 20.832 54.1452 20.4895 54.162 20.233C54.18 19.9754 54.2661 19.6151 54.4029 19.153L55.7625 14.8175C55.9157 14.3546 55.9674 13.8752 55.9334 13.361Z" fill="white"/>
<path fill-rule="evenodd" clip-rule="evenodd" d="M59.2852 11.4415H63.0499L62.5515 13.0347C63.1363 12.3496 63.669 11.8701 64.1337 11.6132C64.5972 11.3388 65.1125 11.2188 65.6805 11.2188C66.2824 11.2188 66.866 11.3903 67.4672 11.7329L65.3875 14.4063C64.9583 14.217 64.6149 14.1325 64.3399 14.1325C63.807 14.1325 63.3418 14.337 62.9117 14.7322C62.3286 15.3146 61.7773 16.378 61.2801 17.953L60.2476 21.2429H56.207L59.2852 11.4415Z" fill="white"/>
<path fill-rule="evenodd" clip-rule="evenodd" d="M75.292 7.70703L74.1232 11.4423H76.3233L75.464 14.1844H73.2469L72.1633 17.6632C72.0252 18.074 71.9911 18.3483 72.0252 18.4853C72.0939 18.6915 72.2834 18.8114 72.6259 18.8114C72.9195 18.8114 73.3656 18.7255 73.9513 18.5536L73.4184 21.1586C72.37 21.3635 71.4067 21.4671 70.5484 21.4671C69.5343 21.4671 68.8281 21.3479 68.433 21.1064C68.037 20.8677 67.7973 20.4903 67.7281 20.0104C67.6415 19.5143 67.7802 18.7255 68.1411 17.6284L69.2225 14.1844H67.7281L68.5875 11.4423H70.0827L70.6503 9.62632L75.292 7.70703Z" fill="white"/>
</svg>
